<?xml version="1.0" encoding="UTF-8"?>
<!DOCTYPE svg PUBLIC "-//W3C//DTD SVG 1.1//EN" "http://www.w3.org/Graphics/SVG/1.1/DTD/svg11.dtd">
<!-- Creator: CorelDRAW X5 -->
<svg xmlns="http://www.w3.org/2000/svg" xml:space="preserve" width="38.7491mm" height="28.0316mm" style="shape-rendering:geometricPrecision; text-rendering:geometricPrecision; image-rendering:optimizeQuality; fill-rule:evenodd; clip-rule:evenodd"
viewBox="0 0 22.2356 16.0855"
 xmlns:xlink="http://www.w3.org/1999/xlink">
 <defs>
  <style type="text/css">
   <![CDATA[
    .fil0 {fill:#FEFEFE}
   ]]>
  </style>
 </defs>
 <g id="Layer_x0020_1">
  <metadata id="CorelCorpID_0Corel-Layer"/>
  <path class="fil0" d="M2.5422 11.0609c0.699849,0.0627201 5.51088,0.26339 5.88531,0.475652 0.281179,0.159411 1.14118,0.737263 1.34076,0.932137 -1.50947,0.116259 -4.37905,-0.132498 -6.02297,-0.310445 -0.960657,-0.103979 -1.24287,-0.0879115 -1.2031,-1.09734zm12.4174 1.29813l-0.0440705 -0.0692045c0.145065,-0.183168 0.722917,-0.56517 0.964042,-0.715801 1.01047,-0.631275 2.75498,-0.958189 3.98482,-0.665591 -0.0527928,1.03107 -0.209048,0.954516 -2.08514,1.2159 -0.757003,0.105471 -2.06575,0.271194 -2.81965,0.234698zm2.03941 -3.22564l-0.0602526 -0.0586459c0.0846406,-0.28927 0.298337,-1.24436 0.66232,-0.593173 0.136343,0.24388 0.102372,0.200899 0.299025,0.399389 -0.21186,0.181447 -0.597821,0.227927 -0.901092,0.25243zm-13.6671 1.26984l-0.0931907 -0.095773c0.484316,-0.146959 0.915209,-0.357556 1.57701,-0.313371 0.41385,0.0276588 1.53334,0.21645 1.61408,0.598509l-3.0979 -0.189365zm16.2404 -1.6084c0.0487186,-0.199178 -0.0571539,-0.127621 0.128367,-0.193153 0.21272,0.072877 0.177774,0.0389634 0.281179,0.19585 -0.270391,0.373107 -0.264882,0.298738 -0.453501,0.294377l0.0439557 -0.297074zm-15.7222 -1.57529c0.0232977,0.00493498 0.132441,0.0286917 0.147533,0.0359794 0.126186,0.0607691 0.0837799,0.040111 0.148566,0.0958304 -0.658246,0.145295 -1.718,1.59279 -2.58203,0.420334 0.0197973,-0.532404 0.372935,-0.983208 0.79545,-0.970641 0.263734,0.00780415 0.351875,0.162051 0.606084,0.246405 0.281064,0.0932481 0.595239,0.0964042 0.884394,0.172093zm8.30339 6.98265c0.10197,0.220295 0.395888,0.471176 0.687569,0.515017 0.214557,-0.156542 0.213581,-0.185922 0.352277,-0.456715l0.117751 -0.026339c0.08619,-0.28927 0.651417,-1.03543 0.884394,-1.10882 0.186324,-0.0586459 1.37032,-0.0703521 1.67852,-0.0968633 1.11272,-0.0957156 2.10534,-0.262242 3.14886,-0.380165 -0.0421768,2.35777 -3.60139,2.7085 -5.44437,2.70655 -1.13252,-0.00120505 -2.12841,0.0335119 -3.40037,-0.00958304 -1.41094,-0.0479152 -2.53182,-0.124809 -3.97254,-0.393478 -1.59974,-0.298337 -3.15707,-0.500613 -2.83704,-2.17885 0.616872,0.264538 1.86714,0.20176 2.57009,0.281408 0.925767,0.14409 2.29247,0.137376 3.22908,0.139155 0.304477,0.000631218 1.34002,-0.0594493 1.52571,-0.0181906 0.16251,0.0360942 0.912971,0.646654 1.04472,0.797687 0.20199,0.137089 0.18093,0.164518 0.415341,0.22919zm6.47831 -9.42959c0.155222,-0.436401 0.1158,-0.886173 -0.30528,-1.02648 -0.31624,0.323471 -0.195219,0.903904 0.30528,1.02648zm-1.27954 0.939998c0.517484,0.0424064 0.642924,-0.419014 0.588525,-0.864941 -0.505204,-0.095773 -0.665304,0.41735 -0.588525,0.864941zm-12.076 -1.55171c-0.153616,0.43686 -0.126014,0.915037 0.370066,1.02556 0.185004,-0.436459 0.134966,-0.945393 -0.370066,-1.02556zm6.35126 -1.69402c-0.0131982,0.0157805 -0.0304132,0.0178463 -0.0384469,0.0483743 -0.00803368,0.0307575 -0.0289213,0.0367254 -0.0348318,0.051473 -0.0409144,0.103233 -0.0397667,0.0397667 -0.0581294,0.190226 -0.0333398,0.273547 0.195333,0.843939 0.442369,0.66846 0.22391,-0.158952 0.115169,-1.01133 -0.310961,-0.958533zm-1.01626 0.31383c0.584737,0.0265112 0.689634,-0.560809 0.537568,-0.88273 -0.526838,-0.085444 -0.607863,0.520411 -0.537568,0.88273zm-6.29514 1.40974c0.0010329,0.000573835 -0.00734508,0.190456 0.295927,0.024388 0.122801,-0.0672534 0.441394,-0.457461 0.207326,-0.880377 -0.49235,-0.00952565 -0.609871,0.545545 -0.503253,0.855989zm0.408628 1.35104c0.308493,-0.526321 -0.0921578,-0.93294 -0.418383,-0.379879 -0.335177,0.568154 0.0358073,1.03279 0.418383,0.379879zm9.51137 -3.10961c0.711957,-0.600001 -0.615438,-1.70613 -0.357269,-0.448222 0.0523911,0.255242 0.135597,0.353712 0.357269,0.448222zm-11.4926 10.2264c-0.0541126,1.10572 0.207728,1.99247 1.14428,2.38038 0.553578,0.439844 4.03016,0.8518 6.28274,1.00978 1.28464,0.0901494 1.98415,-0.00275441 3.23746,-0.0813697 0.704439,-0.0441279 1.42799,-0.0838372 1.64277,-0.110922 1.18388,-0.149427 2.37527,-0.2794 3.43538,-0.837569 0.956525,-0.463601 1.06045,-1.22072 1.14262,-2.5383 0.564022,-0.163026 0.754937,-0.691241 0.826609,-1.46953 0.377124,0.0887722 0.630644,0.211975 0.899887,0.340571 0.1908,0.0911249 0.687683,0.35463 0.845545,0.133876 0.187759,-0.262644 -0.440418,-1.11221 -0.606314,-1.41823 -0.138524,-0.255414 -0.267005,-0.514672 -0.436746,-0.730434 -0.256504,-0.326168 -0.606256,-0.637645 -0.915783,-0.974142 0.566891,0.0544569 0.75333,0.140991 1.07571,-0.248241 0.509049,-0.614634 0.419186,-1.33417 -0.0799352,-1.90955 -0.306542,-0.353425 -0.461937,-0.318823 -0.884968,-0.538716 0.0356925,-0.740935 0.109717,-0.936498 -0.149599,-1.58901 -0.190111,-0.478004 -0.444779,-0.813181 -0.728311,-1.16299 -0.557939,-0.688659 -1.2513,-1.26846 -2.14809,-1.81791 -2.14649,-1.31506 -3.04006,-0.936039 -4.77924,-0.879287 -0.893001,0.0291508 -3.25468,-0.918135 -6.02647,0.933801 -0.620602,0.414653 -0.570047,0.216393 -1.37657,0.343784 -0.967944,0.15287 -1.68398,0.833093 -2.21225,1.61001 -0.757749,1.11444 -0.837971,1.60174 -0.798147,2.97447 -0.485923,0.251913 -0.887722,0.442484 -1.08988,1.14434 -0.292828,1.01672 0.289729,1.19851 0.584336,1.53128 -0.432442,0.608781 -0.864941,1.21756 -1.29738,1.82634 -0.14013,0.160616 -0.21932,0.260636 -0.262874,0.333742 -0.11184,0.187357 -0.130834,0.692963 0.294492,0.635924 0.401225,-0.0539405 0.805606,-0.609585 1.58803,-0.810541l0.0301263 1.05052c0.0807385,0.449944 0.364557,0.715801 0.762569,0.867925zm9.94203 1.19943c-0.869015,-0.748452 -3.42166,-2.55552 -3.61694,-2.74993 1.05511,0.0794761 2.04371,0.0716719 3.02216,-0.0886574 0.871081,-0.14277 2.25328,0.0136573 3.20045,0.0908954 -0.34476,0.362778 -0.666796,0.450345 -1.39166,1.27139 -0.195333,0.221156 -1.07944,1.39413 -1.214,1.4763zm-11.6005 -3.3928c0.153902,-0.388142 0.874524,-1.16752 1.12345,-1.39275 0.264308,-0.239174 0.499179,-0.152009 0.845545,-0.300689 0.304649,-0.13072 0.51932,-0.343268 0.782768,-0.446329 0.0988143,0.627488 -0.0136573,0.74369 0.495277,1.06326 -0.0500958,0.0235846 -1.10687,0.239002 -1.69287,0.447591 -0.501245,0.178405 -1.10612,0.52437 -1.55417,0.628923zm4.95116 -1.5614c0.410693,0.0247323 0.930875,1.11416 4.04697,1.16838 0.642752,0.0111898 0.748625,-0.0922726 1.20058,0.332365 -1.2241,0.118439 -1.49983,0.326569 -3.20142,-0.0306428 -0.529477,-0.111152 -1.03554,-0.271596 -1.47562,-0.516164 -0.467618,-0.25989 -0.923587,-0.543364 -0.570506,-0.953943zm3.78725 0.345448c0.0969207,0.07632 0.0522763,-0.0202564 0.133818,0.130203l-0.246749 0.000803368c-0.654631,-0.135655 -1.51601,-0.102372 -2.09243,-0.439959 0.144262,-0.231026 0.249102,-0.761995 0.530051,-0.938277 0.361057,-0.0545717 0.886345,0.111726 1.1079,0.362319 0.260808,0.295066 0.10966,0.468134 0.567408,0.88491zm10.454 0.0996751c0.2658,0.205548 0.620315,0.699332 0.70639,1.06033l-1.42592 -0.299943 0.719531 -0.760388zm-6.59979 -0.15396c0.137663,-0.472381 0.148681,-1.04593 0.460789,-1.38254 0.492637,0.16119 0.809222,0.764979 1.21423,1.11972 0.141393,0.123891 0.304821,0.212663 0.433876,0.350096 -0.947344,0.0291508 -1.14176,0.0486612 -2.1089,-0.0872802zm-2.88897 0.00447591l0.193841 -0.366738c0.68556,0.376321 0.585426,0.546979 1.76707,0.880434 1.34082,0.378272 2.91009,0.374829 4.24523,0.123719 1.52313,-0.286573 0.804574,-0.478291 1.98323,-0.232518 -1.29962,1.09815 -6.10887,1.45048 -8.18937,-0.404898zm0.717293 -0.956468c0.331504,-0.058818 0.516049,0.275326 0.570965,0.51932 -0.35968,0.149025 -0.781792,-0.191661 -0.570965,-0.51932zm-4.3573 0.281064c-0.708973,-0.0343153 -0.189365,-0.810427 -1.11421,-0.810714 -0.367598,0.367025 -0.664156,1.51119 -1.57862,0.954746 -0.0490629,-0.515705 0.522993,-1.08776 0.769283,-1.36045l2.46565 0.132097 -0.542102 1.08432zm3.9003 -0.974142l0.28181 -0.0523911 -0.169281 0.135712c-0.220639,0.252315 -0.806869,1.0123 -0.923759,1.01764 -0.489366,-0.173298 -0.281695,-0.878942 -1.02934,-1.06475 0.274637,-0.174044 1.58212,-0.0820583 1.84057,-0.036209zm2.09524 1.25664c-0.425613,-0.0805664 -0.538544,-0.326684 -0.697783,-0.575613 -0.195219,-0.30505 -0.294607,-0.400422 -0.568326,-0.674829l1.66831 -0.0698931 -0.402201 1.32034zm7.69197 -1.08661c-0.497515,-0.0318478 -1.14968,-0.358015 -1.56829,-0.182422 -0.53051,0.222418 -0.24738,0.854038 -0.306829,1.30134 -0.839979,0.0687454 -0.791892,-0.874122 -1.20081,-1.16569 -0.27567,-0.196538 -0.635235,-0.133761 -0.858571,0.0585311 -0.305337,0.262931 -0.216106,0.542446 -0.391642,0.924505 -0.454247,0.08619 -0.753158,-0.220869 -0.985733,-0.475307 -0.202908,-0.222131 -0.500212,-0.519435 -0.674944,-0.76452 0.985274,-0.0476857 3.74456,-0.276588 4.58259,-0.684126 0.286114,-0.139098 0.412128,-0.377124 0.736,-0.353597 0.314289,0.0227812 1.29176,0.411439 0.66823,1.34128zm-6.58515 -6.90088c2.37269,0.0999046 5.20732,2.30527 5.53073,3.87774 0.222074,1.07996 -0.409488,1.4005 -1.24505,1.58149 -1.866,0.404381 -4.20357,0.456658 -6.19265,0.547037 -0.390093,0.0176741 -0.856219,-0.00109029 -1.31316,-0.00929612 -1.35913,-0.0242158 -7.74241,-0.0865916 -8.16922,-0.62152 -0.489538,-0.613372 0.029036,-1.83036 0.376608,-2.41286 0.389978,-0.65354 0.981716,-1.2447 1.55262,-1.47728 0.359106,-0.146328 0.77789,-0.143631 1.19111,-0.168765 0.755511,-0.0460789 1.12351,-0.860522 3.01332,-1.28981 0.791088,-0.179668 1.71743,-0.201186 2.61732,-0.0595066 1.78411,0.280949 1.06303,-0.0336267 2.63838,0.032766z"/>
 </g>
</svg>
