<?xml version="1.0" encoding="UTF-8"?>
<!DOCTYPE svg PUBLIC "-//W3C//DTD SVG 1.1//EN" "http://www.w3.org/Graphics/SVG/1.1/DTD/svg11.dtd">
<!-- Creator: CorelDRAW X5 -->
<svg xmlns="http://www.w3.org/2000/svg" xml:space="preserve" width="34.7663mm" height="32.9818mm" style="shape-rendering:geometricPrecision; text-rendering:geometricPrecision; image-rendering:optimizeQuality; fill-rule:evenodd; clip-rule:evenodd"
viewBox="0 0 18.7841 17.82"
 xmlns:xlink="http://www.w3.org/1999/xlink">
 <defs>
  <style type="text/css">
   <![CDATA[
    .fil0 {fill:#FEFEFE}
   ]]>
  </style>
 </defs>
 <g id="Layer_x0020_1">
  <metadata id="CorelCorpID_0Corel-Layer"/>
  <path class="fil0" d="M3.70876 10.25c-1.18493,0.14453 0.291274,0.943954 0.692175,1.0176 0.863611,0.158523 0.158955,-1.12144 -0.692175,-1.0176zm-1.1424 -2.90648c-1.28007,0.105682 -1.60495,1.71944 -1.43341,3.0275 0.440991,3.36395 4.25463,6.1924 7.01446,6.13632 0.622315,-0.012643 1.12198,0.0175597 1.34421,-0.795696 0.490968,-1.79665 -0.549807,-3.93342 -1.41001,-5.31129 -1.1195,-1.79314 -3.64155,-3.21158 -5.51525,-3.05684zm1.0626 2.32306c1.59885,-0.244971 2.34689,2.30718 0.857236,2.20463 -1.41774,-0.0975777 -2.6105,-1.93605 -0.857236,-2.20463zm10.2152 -6.12098c0.241621,-1.64358 1.00533,-0.883818 1.78925,-1.94599 0.194453,-0.263341 0.617614,-0.915696 0.907267,-0.95276 0.313481,-0.0401441 0.318181,0.285223 0.423485,0.49837 0.0816389,0.165331 0.41873,0.217956 0.5953,0.299865 0.355029,0.164683 0.955462,0.529708 0.578226,1.0767 -0.341306,0.494804 -0.786565,0.439532 -1.26554,0.507609 -0.705142,0.100171 -1.41423,1.03267 -2.33019,1.15073l-0.146042 -0.808393 -0.551752 0.173868zm2.70965 -3.54559l0.122648 0c0.4981,0.0419811 0.529059,0.612643 1.09945,0.875012 0.49421,0.227357 1.00776,0.567366 1.00819,1.29563 0.000324178,0.651599 -0.496263,1.17374 -0.981234,1.35723 -0.785052,0.296839 -0.689311,-0.0139397 -1.62284,0.560829 -0.694552,0.427537 -0.397659,0.874417 -0.755768,1.63019 -0.265826,0.560991 -0.547051,0.963134 -0.863179,1.47307 -0.518631,0.836434 -1.54979,1.98657 -1.87856,2.7915 -0.476218,1.16564 -0.34552,2.73742 -0.833085,4.04683 -0.205421,0.551536 -0.482161,1.13252 -0.728645,1.66277 -0.365295,0.7857 -0.556776,0.727456 -0.993823,1.31616 -0.350437,0.472004 -0.848969,0.720162 -1.42114,0.81077l-1.1491 0c-1.42401,-0.184458 -2.98439,-0.955138 -3.84789,-1.57713 -1.90822,-1.37446 -3.62302,-3.6121 -3.70882,-6.27058l0 -0.405115c0.0128591,-0.423917 0.067267,-0.85756 0.169599,-1.29942 0.203962,-0.880901 0.306078,-0.961351 0.842162,-1.49824 0.660622,-0.661702 1.70129,-1.55017 2.52681,-2.0132 1.30703,-0.73313 2.1667,-0.641009 3.5169,-0.824332 2.13293,-0.289707 4.57221,-1.95372 6.70666,-2.04157 1.65509,-0.0681855 1.73111,-1.67519 2.64681,-1.8691 0.0519766,-0.010968 0.100063,-0.0178838 0.144854,-0.0212877zm-14.0159 6.66781c1.16764,-0.0783431 2.62077,0.516848 3.68504,1.086 1.19335,0.638199 1.73641,1.28531 2.48877,2.53864 1.1853,1.97441 2.90145,6.82995 -0.538352,6.89171 -2.28389,0.0409545 -4.76775,-1.51526 -6.26648,-3.54305 -2.17616,-2.9443 -1.63229,-6.82142 0.631013,-6.97329zm0.314885 1.18433c-1.11739,0.0922288 -1.40099,1.50095 -1.25122,2.64276 0.384962,2.93646 3.82828,5.46268 6.23741,5.41373 0.543215,-0.0110221 0.979397,0.0153444 1.17336,-0.694606 0.428618,-1.56832 -0.622855,-3.43354 -1.37376,-4.63635 -0.977236,-1.56524 -3.15015,-2.8606 -4.78579,-2.72553z"/>
 </g>
</svg>
