<?xml version="1.0" encoding="UTF-8"?>
<!DOCTYPE svg PUBLIC "-//W3C//DTD SVG 1.1//EN" "http://www.w3.org/Graphics/SVG/1.1/DTD/svg11.dtd">
<!-- Creator: CorelDRAW X5 -->
<svg xmlns="http://www.w3.org/2000/svg" xml:space="preserve" width="12.885mm" height="12.8851mm" style="shape-rendering:geometricPrecision; text-rendering:geometricPrecision; image-rendering:optimizeQuality; fill-rule:evenodd; clip-rule:evenodd"
viewBox="0 0 2.68261 2.68263"
 xmlns:xlink="http://www.w3.org/1999/xlink">
 <defs>
  <style type="text/css">
   <![CDATA[
    .str0 {stroke:#B2B3B3;stroke-width:0.104098}
    .fil0 {fill:#FEFEFE}
   ]]>
  </style>
 </defs>
 <g id="Layer_x0020_1">
  <metadata id="CorelCorpID_0Corel-Layer"/>
  <path class="fil0 str0" d="M2.13472 0.0906072l0.457262 0.457262c0.0514246,0.0514246 0.0514246,0.135557 0,0.186961l-0.606456 0.606477 0.606456 0.606456c0.0514246,0.0514246 0.0514246,0.135536 0,0.186961l-0.457262 0.457262c-0.0514246,0.0514246 -0.135536,0.0514246 -0.186961,0l-0.606456 -0.606456 -0.606477 0.606477c-0.0514246,0.0514246 -0.135557,0.0514246 -0.186981,0l-0.457242 -0.457262c-0.0514246,-0.0514246 -0.0514246,-0.135536 0,-0.186961l0.606477 -0.606477 -0.606477 -0.606477c-0.0514246,-0.0514246 -0.0514246,-0.135557 0,-0.186981l0.457242 -0.457242c0.0514246,-0.0514246 0.135557,-0.0514246 0.186981,0l0.606477 0.606477 0.606456 -0.606477c0.0514246,-0.0514038 0.135536,-0.0514038 0.186961,0z"/>
 </g>
</svg>
