<?xml version="1.0" encoding="UTF-8"?>
<!DOCTYPE svg PUBLIC "-//W3C//DTD SVG 1.1//EN" "http://www.w3.org/Graphics/SVG/1.1/DTD/svg11.dtd">
<!-- Creator: CorelDRAW X5 -->
<svg xmlns="http://www.w3.org/2000/svg" xml:space="preserve" width="40.1097mm" height="28.5861mm" style="shape-rendering:geometricPrecision; text-rendering:geometricPrecision; image-rendering:optimizeQuality; fill-rule:evenodd; clip-rule:evenodd"
viewBox="0 0 25.8747 18.4409"
 xmlns:xlink="http://www.w3.org/1999/xlink">
 <defs>
  <style type="text/css">
   <![CDATA[
    .fil0 {fill:#FEFEFE}
   ]]>
  </style>
 </defs>
 <g id="Layer_x0020_1">
  <metadata id="CorelCorpID_0Corel-Layer"/>
  <path class="fil0" d="M19.0796 15.8215l0.0642519 0.143728c0.0184498,0.0611554 0.0277393,0.101152 0.0420605,0.153276 0.168564,0.613296 0.414154,1.72861 0.42254,2.32236 0.0038706,-0.00496727 0.00903139,-0.0202561 0.0101281,-0.0163855 0.00109667,0.0038706 0.0078057,-0.012902 0.00961198,-0.0169016l0.039093 -0.114183c0.0126439,-0.0463181 0.0278683,-0.10199 0.0453505,-0.158178 0.0341903,-0.109731 0.0738639,-0.212625 0.114441,-0.320292 0.260556,-0.690708 0.761217,-1.57727 1.19189,-2.14515 0.136439,-0.179854 0.398929,-0.520337 0.54169,-0.679419 0.0696707,-0.0774764 0.142373,-0.139148 0.199013,-0.212044 0.0916686,-0.11786 0.285715,-0.338613 0.39293,-0.430539 0.349773,-0.300229 0.655808,-0.613038 1.05758,-0.928556 0.591879,-0.464859 0.991002,-0.735091 1.65274,-1.13189 0.353514,-0.211915 0.729543,-0.385124 1.01184,-0.560269 -1.40341,-0.148115 -3.2355,-0.545303 -4.42229,-1.12396 -0.726575,-0.354224 -1.07003,-0.536981 -1.57875,-1.20279l-1.40477 -2.10006 -0.88327 -1.23349c-0.0888302,-0.132439 -0.491566,-0.62336 -0.622263,-0.787989 -0.104958,-0.13231 -0.210625,-0.273587 -0.314615,-0.39035 -0.156695,-0.175725 -0.535045,-0.621811 -0.66342,-0.74509l-0.340677 -0.362804c-0.278941,-0.302165 -0.761733,-0.743671 -1.08035,-1.02842 -0.119343,-0.106635 -0.254621,-0.207787 -0.384092,-0.318099 -0.182563,-0.155469 -0.612006,-0.490405 -0.801859,-0.608393 -0.870949,-0.657937 -2.16921,-1.27175 -3.2971,-1.56237 -2.67381,-0.689031 -5.03642,0.0435442 -7.34471,1.39819 -0.249331,0.146244 -0.483696,0.301519 -0.712577,0.46402 -0.348418,0.247396 -0.705803,0.497823 -1.03416,0.767152 -0.180821,0.148373 -0.840887,0.68516 -0.989841,0.843984 0.25017,0.733414 0.9721,1.62971 1.45115,2.21714 0.241074,0.29552 0.900946,0.891979 1.18802,1.13925 0.119021,0.102442 0.260362,0.196884 0.383576,0.294036 0.49034,0.386673 2.13334,1.40922 2.55046,1.44676 0.0402542,-0.0579944 0.0750251,-0.0853466 0.125278,-0.138761 0.261717,-0.278102 0.64968,-0.873529 0.859724,-1.20492 0.287456,-0.453634 0.562333,-1.09228 0.776442,-1.63442 0.326614,-0.827275 0.6351,-1.9662 0.801213,-2.88101 0.0328356,-0.18095 0.061349,-0.350934 0.0903139,-0.538142 0.016192,-0.104313 0.0582525,-0.463117 0.0954747,-0.535432 -0.00045157,0.257008 0.0337387,0.520789 0.0398026,0.786441 0.00658001,0.288166 -0.00264491,0.56072 -0.0149018,0.855273 0.237397,0.038706 0.669613,0.220624 0.91617,0.31068 1.08441,0.396349 2.35474,0.996033 3.35348,1.58688 0.255395,0.151082 0.50937,0.319969 0.763604,0.467116 0.52724,0.305003 1.30865,0.880754 1.82518,1.26962 0.833726,0.627811 1.55469,1.31336 2.32629,2.03419 0.355127,0.33171 0.995259,1.04229 1.33832,1.42819 0.0538013,0.0605748 0.0830888,0.105022 0.141535,0.174757l0.699223 0.880432c0.035803,0.0459311 0.100958,0.160114 0.116311,0.169274l-1.52979 -1.34639c-0.256685,-0.228881 -0.696836,-0.570074 -0.972036,-0.796246 -0.422218,-0.346934 -0.88327,-0.671742 -1.33658,-1.00965 -1.8864,-1.40599 -4.65465,-2.94707 -6.86779,-3.64797 -0.261652,-0.0828308 -0.668065,-0.221785 -0.950877,-0.252234 -0.32384,1.68584 -1.05525,3.17608 -1.84518,4.31513 0.133149,0.139148 1.72932,0.522595 1.84847,0.547238 0.653679,0.135213 1.41806,0.283457 2.10683,0.318744 2.20792,0.113086 4.71697,0.462407 6.50151,1.97291 0.107796,0.0912816 0.227978,0.189466 0.323517,0.282618 0.148308,0.144696 0.48834,0.470148 0.593814,0.643487 0.169726,0.27907 0.275264,0.398736 0.471955,0.74638 0.216431,0.382479 0.434474,0.832759 0.601684,1.25356 0.0640584,0.161275 0.312615,0.795795 0.30739,0.929975zm-15.0646 -13.3727c0.993195,-0.111151 1.16918,1.4507 0.131794,1.54327 -0.966617,0.0863143 -1.15447,-1.4287 -0.131794,-1.54327zm8.34126 9.11977c0.0321259,0.0374158 0.00851531,0.0345128 0.107861,0.133149 0.296036,0.294036 0.791537,0.788892 1.08106,1.05183 0.467375,0.424411 1.09525,1.09112 1.5712,1.53243 0.0948296,0.0878625 0.330742,0.328807 0.404348,0.379254l0.516918 -1.98768c-0.0594137,-0.0502532 -0.0945716,-0.107732 -0.159211,-0.16979 -0.387382,-0.372158 -0.89256,-0.677741 -1.38458,-0.836952 -0.913525,-0.295585 -1.30871,-0.197013 -2.1376,-0.102248zm0.307325 -11.1832c0.100894,-0.0133536 0.966746,0.463375 1.10499,0.548915 0.366997,0.227204 0.701417,0.450408 1.01835,0.687934 0.153534,0.141148 0.319647,0.249137 0.468794,0.386866 0.155856,0.143857 0.286811,0.262297 0.440216,0.408477 0.15405,0.14676 0.268619,0.307906 0.409574,0.440087 0.124827,0.116957 0.275715,0.32971 0.370545,0.47131 0.0771539,-0.0236751 1.74725,-1.04274 1.80776,-1.10357 -0.259653,-0.341322 -0.673935,-0.67658 -1.02526,-0.934039 -1.19092,-0.872884 -2.79509,-1.15053 -4.20702,-0.999646 -0.0625746,0.00670903 -0.124762,0.015934 -0.191207,0.0248363 -0.243654,0.032513 -0.165984,0.0255459 -0.196755,0.0688321z"/>
 </g>
</svg>
