<?xml version="1.0" encoding="UTF-8"?>
<!DOCTYPE svg PUBLIC "-//W3C//DTD SVG 1.1//EN" "http://www.w3.org/Graphics/SVG/1.1/DTD/svg11.dtd">
<!-- Creator: CorelDRAW X5 -->
<svg xmlns="http://www.w3.org/2000/svg" xml:space="preserve" width="27.0408mm" height="6mm" style="shape-rendering:geometricPrecision; text-rendering:geometricPrecision; image-rendering:optimizeQuality; fill-rule:evenodd; clip-rule:evenodd"
viewBox="0 0 16.7318 3.71256"
 xmlns:xlink="http://www.w3.org/1999/xlink">
 <defs>
  <style type="text/css">
   <![CDATA[
    .fil1 {fill:#FEFEFE}
    .fil0 {fill:#FEFEFE;fill-rule:nonzero}
   ]]>
  </style>
 </defs>
 <g id="Layer_x0020_1">
  <metadata id="CorelCorpID_0Corel-Layer"/>
  <g id="_273923840">
   <path id="_271876032" class="fil0" d="M2.17315 0.379424c0.0517902,0.0517283 0.0776544,0.113542 0.0776544,0.185442 0,0.0747462 -0.0180059,0.129321 -0.053894,0.163848 -0.03595,0.0345268 -0.0740656,0.0517283 -0.114285,0.0517283 -0.0488202,0 -0.10061,-0.0100239 -0.155247,-0.0301336 -0.0545746,-0.0201716 -0.10488,-0.0302574 -0.150854,-0.0302574l-0.0172634 0c-0.0862551,0.025926 -0.175357,0.0482014 -0.267366,0.0668261 -0.0919477,0.0186866 -0.182472,0.0424469 -0.271636,0.0711574 -0.0891014,0.0287723 -0.171768,0.0654648 -0.247937,0.109954 -0.0761694,0.0445507 -0.140087,0.105684 -0.191877,0.183277 0,0.048882 -0.00717762,0.0991872 -0.0215947,0.150916 -0.0143552,0.0517283 -0.0293911,0.103519 -0.0452314,0.155247 -0.0158403,0.0517283 -0.0308761,0.103457 -0.0452932,0.155185 -0.0143552,0.0517902 -0.0215328,0.100672 -0.0215328,0.146646 0,0.0488202 0.0092814,0.0941134 0.0279679,0.135818 0.0874927,0.194909 0.210007,0.071343 0.34731,0.0341555 0.0847701,-0.0230179 0.168921,-0.0467164 0.252207,-0.0711574 0.083347,-0.024441 0.166075,-0.0467164 0.247937,-0.0668261 0.0819238,-0.0201097 0.166013,-0.0301955 0.252268,-0.0301955 0.0143552,0 0.0279679,0 0.0409,0 0.0129321,0 0.0502433,0.038425 0.0645985,0.0413332l0 0.0344649c-0.106365,0.0431894 -0.217742,0.0805007 -0.334192,0.112119 -0.116389,0.0316186 -0.232097,0.066888 -0.347124,0.105684 -0.114904,0.0387962 -0.224177,0.0861933 -0.327633,0.142253 -0.103519,0.0560597 -0.195528,0.131548 -0.275967,0.226404l0 0.0387962c0,0.0747462 0.00575447,0.14875 0.0172634,0.222073 0.0114471,0.0732612 0.0251217,0.145904 0.0409,0.217742 0.0157784,0.071838 0.0295148,0.142995 0.0409619,0.213472 0.0115089,0.0704149 0.0172634,0.141572 0.0172634,0.21341 0,0.0689299 -0.0100858,0.125732 -0.0301955,0.170283 -0.0201097,0.0446126 -0.0704149,0.0668261 -0.150916,0.0668261 -0.0517283,0 -0.0948559,-0.0201097 -0.129321,-0.0603291 -0.0344649,-0.0402194 -0.0610716,-0.0876783 -0.0797582,-0.142315 -0.0186866,-0.0545746 -0.0316186,-0.109954 -0.0387962,-0.166013 -0.00717762,-0.0559978 -0.0108283,-0.0998679 -0.0108283,-0.131486 0,-0.0891014 0.00649698,-0.180369 0.0194291,-0.273801 0.0129321,-0.0934328 0.0193672,-0.186123 0.0193672,-0.278133 0,-0.048882 -0.0028463,-0.096279 -0.00860076,-0.142253 -0.00575447,-0.0460357 -0.0172634,-0.0920715 -0.0345268,-0.138045 0.0258642,-0.0660836 0.0402813,-0.135818 0.0431276,-0.209079 0.0028463,-0.0733231 0.00575447,-0.146646 0.00860076,-0.219907 0.00290817,-0.0733231 0.0129321,-0.144419 0.0301955,-0.213472 0.0173253,-0.0689917 0.0532134,-0.129321 0.10785,-0.181049 0.00860076,-0.0431894 0.0129321,-0.084832 0.0129321,-0.125051 0,-0.0431276 -0.0215947,-0.0819238 -0.0646604,-0.116451 -0.0144171,0.0028463 -0.0345268,0.00433132 -0.060391,0.00433132 -0.0373731,0 -0.0761694,-0.00581634 -0.116451,-0.0173253 -0.0402194,-0.0114471 -0.0775925,-0.0272873 -0.112119,-0.047397 -0.0344649,-0.0201097 -0.0624948,-0.0452314 -0.0840276,-0.0754887 -0.0215947,-0.0301336 -0.0323611,-0.0639179 -0.0323611,-0.101291 0,-0.0345268 0.0143552,-0.0646604 0.0431276,-0.0905246 0.0430657,-0.0258642 0.116451,-0.0568022 0.219907,-0.0927521 0.103519,-0.0358881 0.219907,-0.0740037 0.34929,-0.114223 0.129321,-0.0402194 0.265139,-0.0805007 0.407453,-0.12072 0.142253,-0.0402813 0.275905,-0.0762312 0.401018,-0.10785 0.12499,-0.0315568 0.232839,-0.0574209 0.323364,-0.0775925 0.0905246,-0.0201097 0.150173,-0.0301336 0.178884,-0.0301336 0.0431276,0 0.0855745,0.00575447 0.127217,0.0172015 0.0417044,0.0115089 0.0826663,0.0331037 0.122886,0.0646604z"/>
   <path id="_273924656" class="fil0" d="M2.87544 1.98777c0.00860076,0.0459739 0.0157784,0.0920096 0.0215328,0.137983 0.00575447,0.0459739 0.00866264,0.0905865 0.00866264,0.133652 0,0.163848 -0.0316186,0.317671 -0.0948559,0.461409 -0.0632373,0.143738 -0.15667,0.270212 -0.280298,0.379424 -0.071838,0.0316186 -0.147327,0.0582253 -0.226342,0.0797582 -0.0790775,0.0215947 -0.158836,0.0323611 -0.239336,0.0323611 -0.060391,0 -0.120039,-0.00717762 -0.178945,-0.0215328 -0.0589059,-0.0144171 -0.117131,-0.0388581 -0.174614,-0.0733231 -0.0460357,-0.0402813 -0.0776544,-0.0869358 -0.0948559,-0.140149 -0.0172634,-0.0531515 -0.0258642,-0.10853 -0.0258642,-0.166013 0,-0.0344649 0.0028463,-0.0689917 0.00860076,-0.103457 0.00575447,-0.0345268 0.0115089,-0.0675686 0.0172634,-0.0991872 0.0258642,-0.103519 0.071838,-0.197632 0.137983,-0.282402 0.0660836,-0.084832 0.143676,-0.159578 0.232839,-0.224239 0.0891014,-0.0646604 0.18538,-0.118616 0.288899,-0.161682 0.103457,-0.0431276 0.20549,-0.0747462 0.306101,-0.0948559 0.0144171,-0.00290817 0.0273492,-0.00507383 0.0387962,-0.00649698 0.0115089,-0.00142315 0.0230179,-0.00216566 0.0345268,-0.00216566 0.103457,0 0.17678,0.0503052 0.219907,0.150916zm-0.491543 0.784773c0.048882,-0.0230179 0.0984447,-0.0582253 0.14875,-0.105622 0.0503052,-0.0474589 0.0754268,-0.101353 0.0754268,-0.161744 0,-0.0316186 -0.00860076,-0.0632373 -0.0258642,-0.0948559 -0.0287105,-0.0574828 -0.0668261,-0.0970216 -0.114223,-0.118554 -0.0474589,-0.0215328 -0.0999297,-0.0323611 -0.157413,-0.0323611 -0.0115089,0 -0.0230179,0 -0.0344649,0 -0.0115089,0 -0.024441,0.00148502 -0.0388581,0.00433132 -0.0632373,0.0172634 -0.124309,0.0474589 -0.183215,0.0905246 -0.0589678,0.0431276 -0.107107,0.0977641 -0.14448,0.16391 -0.0258642,0.0344649 -0.0387962,0.0732612 -0.0387962,0.116389 0,0.0546365 0.0186866,0.10061 0.0560597,0.137983 0.0258642,0.0258642 0.0517283,0.0438082 0.0775925,0.053894 0.025926,0.0100858 0.0546365,0.0150977 0.0862551,0.0150977 0.048882,0 0.0977641,-0.00860076 0.146584,-0.0258642 0.048882,-0.0172634 0.0977641,-0.0316186 0.146646,-0.0431276z"/>
   <path id="_273923384" class="fil0" d="M4.27297 1.98777c0.00860076,0.0459739 0.0157784,0.0920096 0.0215328,0.137983 0.00575447,0.0459739 0.00866264,0.0905865 0.00866264,0.133652 0,0.163848 -0.0316186,0.317671 -0.0948559,0.461409 -0.0632373,0.143738 -0.15667,0.270212 -0.280298,0.379424 -0.0717762,0.0316186 -0.147265,0.0582253 -0.226281,0.0797582 -0.0790775,0.0215947 -0.158836,0.0323611 -0.239336,0.0323611 -0.060391,0 -0.120039,-0.00717762 -0.178945,-0.0215328 -0.0589059,-0.0144171 -0.117131,-0.0388581 -0.174614,-0.0733231 -0.0460357,-0.0402813 -0.0776544,-0.0869358 -0.0948559,-0.140149 -0.0172634,-0.0531515 -0.0258642,-0.10853 -0.0258642,-0.166013 0,-0.0344649 0.0028463,-0.0689917 0.00860076,-0.103457 0.00575447,-0.0345268 0.0115089,-0.0675686 0.0172634,-0.0991872 0.0258642,-0.103519 0.071838,-0.197632 0.137983,-0.282402 0.0660836,-0.084832 0.143676,-0.159578 0.232839,-0.224239 0.0891014,-0.0646604 0.18538,-0.118616 0.288899,-0.161682 0.103457,-0.0431276 0.20549,-0.0747462 0.306039,-0.0948559 0.0144171,-0.00290817 0.0273492,-0.00507383 0.0387962,-0.00649698 0.0115089,-0.00142315 0.0230179,-0.00216566 0.0345268,-0.00216566 0.103457,0 0.17678,0.0503052 0.219907,0.150916zm-0.491481 0.784773c0.048882,-0.0230179 0.0984447,-0.0582253 0.148688,-0.105622 0.0503052,-0.0474589 0.0754268,-0.101353 0.0754268,-0.161744 0,-0.0316186 -0.00860076,-0.0632373 -0.0258642,-0.0948559 -0.0287105,-0.0574828 -0.0668261,-0.0970216 -0.114161,-0.118554 -0.0474589,-0.0215328 -0.0999297,-0.0323611 -0.157413,-0.0323611 -0.0115089,0 -0.0230179,0 -0.0344649,0 -0.0115089,0 -0.024441,0.00148502 -0.0388581,0.00433132 -0.0632373,0.0172634 -0.124309,0.0474589 -0.183215,0.0905246 -0.0589678,0.0431276 -0.107107,0.0977641 -0.14448,0.16391 -0.0258642,0.0344649 -0.0387962,0.0732612 -0.0387962,0.116389 0,0.0546365 0.0186866,0.10061 0.0560597,0.137983 0.0258642,0.0258642 0.0517283,0.0438082 0.0775925,0.053894 0.025926,0.0100858 0.0546365,0.0150977 0.0862551,0.0150977 0.048882,0 0.0977641,-0.00860076 0.146584,-0.0258642 0.048882,-0.0172634 0.0977641,-0.0316186 0.146646,-0.0431276z"/>
   <path id="_273924296" class="fil0" d="M6.93927 0.155247c-0.0172015,0.186866 -0.0545746,0.362903 -0.112057,0.528173 -0.0574828,0.165333 -0.123628,0.326272 -0.198374,0.482942 -0.0746843,0.15667 -0.151596,0.312659 -0.230674,0.467844 -0.0790775,0.155247 -0.148812,0.314763 -0.209141,0.478673 -0.0201097,0.0545746 -0.0323611,0.1128 -0.0366925,0.174614 -0.00426944,0.0617522 -0.00717762,0.123566 -0.00860076,0.18538 -0.00142315,0.0618141 -0.0064351,0.122143 -0.0150359,0.181111 -0.00866264,0.0589059 -0.0272873,0.112862 -0.0560597,0.161682 -0.060391,-0.00575447 -0.101353,-0.0266067 -0.122886,-0.0624948 -0.0215947,-0.03595 -0.0366925,-0.0775925 -0.0452932,-0.125051 -0.00860076,-0.0474589 -0.0157784,-0.0955984 -0.0215328,-0.14448 -0.00575447,-0.048882 -0.0215947,-0.0891014 -0.0474589,-0.12072 -0.0143552,-0.0430657 -0.03595,-0.0855126 -0.0647223,-0.127155 -0.0287105,-0.0417044 -0.0631754,-0.07982 -0.103457,-0.114285 -0.0402194,-0.0345268 -0.083347,-0.061876 -0.129383,-0.0819857 -0.0459739,-0.0201097 -0.0933709,-0.0301336 -0.142253,-0.0301336 -0.146584,-0.00575447 -0.27739,0.0344649 -0.392356,0.12072 -0.114966,0.0862551 -0.209883,0.188289 -0.284568,0.306162 -0.0230179,0.0373112 -0.0395388,0.0746843 -0.0496245,0.112119 -0.0100858,0.0373731 -0.0150977,0.0761694 -0.0150977,0.116389 0,0.0805007 0.0165209,0.158836 0.0495627,0.235005 0.0330418,0.0761694 0.0726424,0.147327 0.118616,0.21341 0.0517283,0.0574828 0.107788,0.106427 0.168179,0.146646 0.0603291,0.0402194 0.132229,0.0646604 0.215576,0.0732612 0.149492,-0.00860076 0.289642,-0.0423851 0.420386,-0.101291 0.130806,-0.0589059 0.259446,-0.122143 0.385921,-0.189774 0.126475,-0.0675067 0.255115,-0.127155 0.385921,-0.178884 0.130806,-0.0517283 0.272378,-0.0761694 0.424717,-0.0733231 0.0172634,0.0115089 0.0280298,0.0236985 0.0322993,0.0366306 0.00433132,0.0129321 0.00433132,0.0258642 0,0.0388581 -0.00426944,0.0129321 -0.0100239,0.0265448 -0.0172015,0.0409 -0.00723949,0.0144171 -0.0121896,0.0287723 -0.0150977,0.0431276 -0.12072,0.0632991 -0.245771,0.138726 -0.375154,0.226404 -0.129321,0.0876783 -0.260807,0.171025 -0.394521,0.250103 -0.133714,0.0790156 -0.270212,0.146584 -0.409619,0.202644 -0.139407,0.0560597 -0.279556,0.0840895 -0.420386,0.0840895 -0.0920096,0 -0.183277,-0.0136746 -0.273863,-0.0409619 -0.0905246,-0.0273492 -0.181792,-0.0726424 -0.273739,-0.135818 -0.0345268,-0.0431276 -0.0690536,-0.0884208 -0.103519,-0.135818 -0.0344649,-0.0474589 -0.0660836,-0.0955984 -0.0948559,-0.14448 -0.0287105,-0.0488202 -0.0524708,-0.0984447 -0.0711574,-0.14875 -0.0186866,-0.0503052 -0.0280298,-0.102776 -0.0280298,-0.157413 0,-0.0747462 -0.0225229,-0.172696 0.0131796,-0.246885 0.0391056,-0.0812432 0.0762312,-0.17251 0.125051,-0.267304 0.0488202,-0.0948559 0.107107,-0.183277 0.174614,-0.265201 0.0675686,-0.0818619 0.143738,-0.152339 0.228508,-0.211307 0.084832,-0.0589059 0.179007,-0.0955984 0.282464,-0.109954 0.0459739,-0.0230179 0.134828,-0.007487 0.172263,-0.007487 0.0517283,0 0.101291,0.0129321 0.14875,0.0388581 0.047397,0.0258642 0.0926902,0.0545746 0.135818,0.0861933 0.0431276,0.0316186 0.0847701,0.0603291 0.12499,0.0861933 0.0402813,0.025926 0.0805625,0.0388581 0.120782,0.0388581 0.0316186,0 0.0639798,-0.0122514 0.0970216,-0.0366306 0.0330418,-0.024441 0.0668261,-0.0683111 0.101353,-0.131548 0.0316186,-0.158093 0.0689299,-0.31334 0.112057,-0.465679 0.0431276,-0.152339 0.0884208,-0.303997 0.135818,-0.454912 0.0474589,-0.150916 0.0926902,-0.302574 0.135818,-0.454912 0.0431276,-0.152339 0.0805625,-0.307586 0.112181,-0.465679 0.0114471,-0.0287723 0.0293911,-0.0495627 0.053894,-0.0624948 0.024441,-0.0129321 0.052409,-0.0194291 0.0840276,-0.0194291 0.0460357,0 0.0898439,0.0136746 0.131486,0.0409619 0.0417663,0.0272873 0.0654029,0.0654029 0.0711574,0.114285z"/>
   <path id="_273928832" class="fil0" d="M9.38083 2.82551l0 -1.8452c0,-0.00742512 -0.00198003,-0.0133652 -0.0064351,-0.0173253 -0.00445507,-0.00445507 -0.0113852,-0.0064351 -0.0202953,-0.0064351l-0.133714 0c-0.00891014,0 -0.0148502,0.00198003 -0.0183153,0.0064351 -0.00402194,0.00445507 -0.00550696,0.0113852 -0.00550696,0.0202953l0 0.65669c0,0.0123752 -0.00346506,0.0207903 -0.0103952,0.0252454 -0.00693011,0.00445507 -0.0163353,0.000990016 -0.0282155,-0.0103952 -0.0168303,-0.0202953 -0.0391056,-0.0391056 -0.0673211,-0.0574209 -0.0282155,-0.0178822 -0.062371,-0.0327324 -0.101972,-0.0436226 -0.0396006,-0.0113852 -0.0851414,-0.0173253 -0.136684,-0.0178203 -0.0782113,0.000495008 -0.147079,0.0143552 -0.20648,0.0410857 -0.0594628,0.0267923 -0.109459,0.0634229 -0.149554,0.109459 -0.0406525,0.0465307 -0.070848,0.0990635 -0.0916383,0.157969 -0.0202953,0.0584728 -0.0306905,0.120349 -0.0306905,0.1847l0 0.356591c0,0.0946084 0.0173253,0.17777 0.0524708,0.249608 0.0347124,0.0712811 0.0866883,0.127217 0.155494,0.167375 0.069363,0.0400956 0.155494,0.060886 0.258518,0.061381 0.0480158,-0.000495008 0.0931234,-0.0064351 0.135694,-0.0178203 0.0425707,-0.0113852 0.0806863,-0.0262354 0.113852,-0.0445507 0.0331655,-0.0183153 0.059896,-0.0381775 0.0801913,-0.0594628 0.0108902,-0.00841514 0.0202953,-0.0113852 0.0287105,-0.00841514 0.007982,0.00297005 0.0124371,0.00940515 0.0129321,0.0202953l0 0.068373c0,0.00891014 0.00148502,0.0153452 0.00544509,0.0198003 0.00346506,0.00445507 0.00940515,0.00693011 0.0183153,0.00693011l0.121834 0c0.00891014,0 0.0148502,-0.00198003 0.0188103,-0.0064351 0.00346506,-0.00396006 0.00495008,-0.00990016 0.00495008,-0.0173253l0 0zm-0.184267 -0.439753c-0.000495008,0.061876 -0.0143552,0.117379 -0.0415807,0.16589 -0.0267304,0.0485108 -0.064351,0.0866883 -0.111934,0.114904 -0.0474589,0.0282155 -0.102405,0.0425707 -0.164343,0.0430657 -0.0742512,-0.000495008 -0.135199,-0.0148502 -0.183215,-0.0430657 -0.0475208,-0.0282155 -0.0831613,-0.066888 -0.105994,-0.115894 -0.0232654,-0.0490058 -0.0346506,-0.105004 -0.0346506,-0.16787l0 -0.353621c0,-0.061381 0.0118802,-0.116822 0.0356406,-0.16688 0.0238223,-0.0499958 0.0599578,-0.0900914 0.107974,-0.119792 0.0480158,-0.0302574 0.107974,-0.0456026 0.180245,-0.0460976 0.0629279,0.000495008 0.118369,0.0158403 0.166323,0.0451076 0.0480776,0.0297005 0.0856983,0.0688061 0.112924,0.118802 0.0272254,0.0495627 0.0410857,0.104509 0.0416425,0.16589l-0.00303192 0.359561zm0.6755 -1.22712c-0.000990016,-0.0347124 -0.0123752,-0.0634229 -0.0352074,-0.0852032 -0.0227704,-0.0217804 -0.0514808,-0.0331655 -0.0866264,-0.0336605 -0.0212853,0 -0.0405907,0.00544509 -0.0584728,0.0163353 -0.0178203,0.0103952 -0.0326705,0.0247504 -0.0435607,0.0425707 -0.0108902,0.0178203 -0.0163353,0.0376206 -0.0168303,0.0599578 0.000495008,0.0227704 0.0059401,0.0435607 0.0173253,0.061876 0.0108902,0.0183153 0.0257404,0.0326705 0.0440557,0.0435607 0.0183772,0.0103952 0.0381775,0.0158403 0.0604528,0.0163353 0.0222754,-0.000495008 0.0420757,-0.0059401 0.059896,-0.0173253 0.0178203,-0.0108902 0.0322374,-0.0257404 0.0426326,-0.0440557 0.0103952,-0.0183153 0.0158403,-0.0386106 0.0163353,-0.060391zm-0.216937 1.66688c0,0.00742512 0.00297005,0.0133652 0.00792013,0.0173253 0.00495008,0.00445507 0.0113852,0.0064351 0.0188103,0.0064351l0.133714 0c0.00891014,0 0.0148502,-0.00148502 0.0183153,-0.00544509 0.00396006,-0.00346506 0.00544509,-0.00940515 0.00544509,-0.0183153l0 -1.24798c0,-0.00891014 -0.00148502,-0.0158403 -0.00544509,-0.0202953 -0.00346506,-0.00445507 -0.00940515,-0.0064351 -0.0183153,-0.0064351l-0.133714 0c-0.0178203,0 -0.0267304,0.00891014 -0.0267304,0.0267304l0 1.24798zm1.32025 -0.314949c-0.000495008,-0.0649079 -0.0138602,-0.119359 -0.0401575,-0.16391 -0.0257404,-0.0446126 -0.060391,-0.0817382 -0.103952,-0.111934 -0.0436226,-0.0301955 -0.0916383,-0.0564928 -0.144109,-0.0782731 -0.0530277,-0.0217804 -0.106489,-0.0425707 -0.160444,-0.061876 -0.0307524,-0.0108902 -0.0609479,-0.0232654 -0.0906483,-0.0366306 -0.0292055,-0.0128702 -0.0559359,-0.0282773 -0.0796963,-0.0456026 -0.0243173,-0.0168303 -0.0431276,-0.0371256 -0.0574828,-0.059401 -0.0143552,-0.0227704 -0.0212853,-0.0485108 -0.0217804,-0.0782731 0.000495008,-0.0311855 0.00742512,-0.0584109 0.0217804,-0.0816763 0.0143552,-0.0227704 0.0331655,-0.0420757 0.0574828,-0.0574209 0.0237604,-0.0149121 0.0504908,-0.0262973 0.0796963,-0.0337224 0.0297005,-0.00792013 0.059896,-0.0113852 0.0906483,-0.0113852 0.0529659,0.000495008 0.104942,0.0113852 0.155989,0.0326705 0.0514808,0.0213472 0.0975166,0.0500577 0.138169,0.0861933 0.0103952,0.0103952 0.0202953,0.0158403 0.0292055,0.0158403 0.00891014,0.000495008 0.0168303,-0.00396006 0.0242554,-0.0128702l0.059401 -0.0683111c0.00742512,-0.00742512 0.0119421,-0.0149121 0.0129321,-0.0223372 0.00148502,-0.00742512 -0.000990016,-0.0148502 -0.00699199,-0.0222754 -0.0336605,-0.0366306 -0.0727662,-0.0668261 -0.116327,-0.0910815 -0.0436226,-0.0243173 -0.0906483,-0.0426326 -0.140644,-0.0545128 -0.0500577,-0.0118802 -0.102034,-0.0178203 -0.155989,-0.0178203 -0.0550078,0.000495008 -0.107479,0.00891014 -0.157969,0.0237604 -0.0505527,0.0153452 -0.0955984,0.0376825 -0.135694,0.067383 -0.0401575,0.0292055 -0.071838,0.0658361 -0.0951034,0.109954 -0.0237604,0.0435607 -0.0356406,0.0945465 -0.0361356,0.152524 0.000495008,0.0519758 0.0108902,0.0970216 0.0311855,0.135632 0.0207903,0.0381775 0.0475208,0.071343 0.0817382,0.0985685 0.0336605,0.0277204 0.0712811,0.0514808 0.112367,0.071343 0.0411475,0.0198003 0.0822332,0.0376206 0.124309,0.0524708 0.0415807,0.0153452 0.0807482,0.0297005 0.116884,0.0430657 0.0410857,0.0153452 0.0792013,0.0326705 0.114409,0.0515427 0.0346506,0.0188103 0.062866,0.0415807 0.0841514,0.0693011 0.0217804,0.0277204 0.0327324,0.062866 0.0332274,0.105004 -0.000495008,0.0391056 -0.0119421,0.0732612 -0.0342174,0.102962 -0.0222754,0.0297624 -0.0534609,0.0535227 -0.0930615,0.070353 -0.0396625,0.0168303 -0.0852032,0.0252454 -0.137179,0.0257404 -0.0460976,0 -0.0896583,-0.00792013 -0.130744,-0.0227704 -0.0410857,-0.0143552 -0.0777781,-0.0356406 -0.109954,-0.062371 -0.0321755,-0.0272873 -0.0579159,-0.0594628 -0.0772212,-0.0960934 -0.00297005,-0.0064351 -0.00693011,-0.0113852 -0.0118802,-0.0153452 -0.00501196,-0.00346506 -0.0119421,-0.00346506 -0.0208522,0.000495008l-0.106922 0.0504908c-0.00742512,0.00297005 -0.0118802,0.00742512 -0.0138602,0.0128702 -0.00148502,0.00495008 -0.000990016,0.0108902 0.00198003,0.0168303 0.0272254,0.0594628 0.064351,0.108469 0.111377,0.147574 0.0470876,0.0391675 0.100053,0.068373 0.159454,0.0881733 0.0594628,0.0193053 0.121834,0.0287105 0.186742,0.0287105 0.0752412,-0.000495008 0.140644,-0.0103952 0.197075,-0.0292055 0.0564309,-0.0193053 0.103519,-0.0455407 0.141139,-0.0787681 0.0376206,-0.0326705 0.0663311,-0.0702911 0.0852032,-0.112367 0.0188103,-0.0426326 0.0282155,-0.0866883 0.0282155,-0.133219zm1.10919 -0.763612c-0.0514808,-0.068868 -0.112429,-0.120844 -0.182225,-0.156979 -0.0697961,-0.0357024 -0.151039,-0.0540177 -0.242678,-0.0540177 -0.0722712,-0.000495008 -0.139654,0.0103952 -0.20153,0.0326705 -0.061876,0.0223372 -0.115894,0.0550078 -0.161929,0.0975784 -0.0465307,0.0425707 -0.0822332,0.0946084 -0.108469,0.154999 -0.0257404,0.060886 -0.0386106,0.128764 -0.0391056,0.204995l0 0.359561c0.000495008,0.0985685 0.0212853,0.18371 0.062371,0.255548 0.0411475,0.0717762 0.0995585,0.127217 0.175357,0.166385 0.0757362,0.0391056 0.16589,0.0589059 0.270336,0.059401 0.0871833,0.000990016 0.16787,-0.0158403 0.242678,-0.0495008 0.0747462,-0.0336605 0.138169,-0.0896583 0.191135,-0.167375 0.0064351,-0.00742512 0.00841514,-0.0153452 0.0064351,-0.0243173 -0.00148502,-0.00841514 -0.00990016,-0.0173253 -0.0242554,-0.0262354l-0.0861314 -0.0534609c-0.007487,-0.0059401 -0.0149121,-0.00940515 -0.0218422,-0.00990016 -0.0064351,-0.000495008 -0.0123752,0.00247504 -0.0168303,0.00990016 -0.0222754,0.0311855 -0.0465307,0.0584109 -0.0727662,0.0827282 -0.0262354,0.0237604 -0.0569878,0.0425707 -0.0921334,0.0564309 -0.0351456,0.0138602 -0.0772212,0.0207903 -0.126289,0.0212853 -0.0693011,-0.000495008 -0.128764,-0.0133652 -0.177275,-0.0396006 -0.0485108,-0.0257404 -0.0856364,-0.0624329 -0.110944,-0.109954 -0.0257404,-0.0475208 -0.0386106,-0.103519 -0.0386106,-0.168365l0 -0.374412c0.000495008,-0.061876 0.0143552,-0.116822 0.0415807,-0.1649 0.0277823,-0.0485108 0.0658979,-0.0861314 0.114904,-0.113852 0.0485727,-0.0277823 0.105499,-0.0416425 0.170345,-0.0421376 0.0579778,0.000495008 0.110449,0.0138602 0.157474,0.0400956 0.0470876,0.0262973 0.0876783,0.0634229 0.121834,0.111439 0.00742512,0.0103952 0.0148502,0.0173253 0.0232654,0.0207903 0.00841514,0.00297005 0.0183153,0.000990016 0.0302574,-0.0059401l0.0861314 -0.062371c0.00891014,-0.0064351 0.0138602,-0.0138602 0.0153452,-0.0232654 0.00148502,-0.00891014 -0.000495008,-0.0183153 -0.0064351,-0.0272254zm1.17762 0.626928l0 -0.353621c-0.000495008,-0.101477 -0.0217804,-0.18866 -0.0634229,-0.260931 -0.0415807,-0.072828 -0.0999916,-0.128269 -0.175295,-0.167375 -0.0747462,-0.0391675 -0.162919,-0.0584728 -0.263468,-0.0589678 -0.101477,0.000495008 -0.190145,0.0207903 -0.265386,0.0609479 -0.0757981,0.0400956 -0.134209,0.0965266 -0.176347,0.169355 -0.0415807,0.0727662 -0.062866,0.158464 -0.063361,0.256971l0 0.359561c0.000495008,0.102529 0.0207903,0.18965 0.061381,0.262478 0.0411475,0.0722712 0.0990635,0.127712 0.174367,0.166385 0.0752412,0.0386106 0.1649,0.0579159 0.269346,0.0584109 0.104509,-0.000495008 0.194167,-0.0198003 0.268913,-0.0584109 0.0748081,-0.0386725 0.132229,-0.0951034 0.172325,-0.168365 0.0401575,-0.0733231 0.0604528,-0.161929 0.0609479,-0.266438zm-0.181235 0.00297005c-0.000990016,0.0668261 -0.0134271,0.124804 -0.0371875,0.1748 -0.0232654,0.0495008 -0.0589059,0.0881733 -0.105932,0.115894 -0.0470876,0.0277204 -0.106489,0.0415807 -0.177832,0.0420757 -0.0693011,-0.000495008 -0.128269,-0.0143552 -0.176285,-0.0420757 -0.0480158,-0.0277204 -0.0846464,-0.0663929 -0.109954,-0.115894 -0.0247504,-0.0499958 -0.0376206,-0.107974 -0.0376206,-0.1748l0 -0.356591c0,-0.063856 0.0128702,-0.120287 0.0376206,-0.169355 0.0253073,-0.0490058 0.0619379,-0.0871214 0.109954,-0.114842 0.0480158,-0.0282773 0.106984,-0.0421376 0.176285,-0.0426326 0.068373,0.000495008 0.126784,0.0148502 0.174367,0.0431276 0.0475208,0.0282155 0.0841514,0.0673211 0.108902,0.116822 0.0247504,0.0490677 0.0376825,0.105994 0.0376825,0.16985l0 0.353621zm1.42711 0.445693l0 -1.25095c0,-0.00742512 -0.00297005,-0.0133652 -0.00792013,-0.0173253 -0.00495008,-0.00445507 -0.0113852,-0.0064351 -0.0188103,-0.0064351l-0.136684 0c-0.00891014,0 -0.0148502,0.00198003 -0.0183153,0.00693011 -0.00396006,0.00445507 -0.00544509,0.0108902 -0.00544509,0.0198003l0 0.801294c-0.000495008,0.063361 -0.0149121,0.119854 -0.0431276,0.169355 -0.0282155,0.0495008 -0.0683111,0.0886683 -0.119854,0.117379 -0.0514808,0.0287105 -0.11181,0.0435607 -0.181668,0.0440557 -0.0717762,-0.000495008 -0.129754,-0.0158403 -0.173315,-0.0455407 -0.0435607,-0.0292055 -0.0752412,-0.068868 -0.0951034,-0.118369 -0.0193053,-0.0499958 -0.0292055,-0.105499 -0.0287105,-0.16688l0 -0.804264c0,-0.00742512 -0.00148502,-0.0133652 -0.00495008,-0.0173253 -0.00297005,-0.00445507 -0.00841514,-0.0064351 -0.0158403,-0.0064351l-0.136684 0c-0.00891014,0 -0.0148502,0.00198003 -0.0183153,0.00693011 -0.00396006,0.00445507 -0.00544509,0.0108902 -0.00544509,0.0198003l0 0.807234c0,0.0940515 0.0158403,0.17777 0.0480158,0.250598 0.0322374,0.0722712 0.0817382,0.129692 0.148564,0.171335 0.067383,0.0415807 0.153019,0.062371 0.258023,0.063361 0.0391056,0 0.0802532,-0.00544509 0.122762,-0.0153452 0.0425707,-0.0103952 0.0831613,-0.0252454 0.121834,-0.0445507 0.0381156,-0.0193053 0.0707861,-0.0431276 0.0970216,-0.070848 0.00940515,-0.00891014 0.0173253,-0.0118802 0.0248123,-0.00940515 0.00693011,0.00297005 0.0103952,0.0108902 0.0108902,0.0242554l0 0.0743131c0,0.00891014 0.00148502,0.0148502 0.00544509,0.0183153 0.00346506,0.00396006 0.00940515,0.00544509 0.0183153,0.00544509l0.127774 0c0.0178203,0 0.0267304,-0.00891014 0.0267304,-0.0267304l0 0zm1.27564 0l0 -0.796344c0,-0.0693011 -0.00891014,-0.133652 -0.0277204,-0.193115 -0.0183153,-0.059401 -0.0465926,-0.111439 -0.0842132,-0.155494 -0.0381156,-0.0445507 -0.0856364,-0.0792013 -0.143614,-0.104014 -0.0579159,-0.0247504 -0.126289,-0.0371256 -0.204995,-0.0376206 -0.0629279,0 -0.122824,0.0108902 -0.180245,0.0326705 -0.0569878,0.0218422 -0.108964,0.0535227 -0.155494,0.0951034 -0.0109521,0.0103952 -0.0198622,0.0143552 -0.0272873,0.0118802 -0.00742512,-0.00247504 -0.0108902,-0.0103952 -0.0113852,-0.0237604l0 -0.0772831c0,-0.00891014 -0.000990016,-0.0148502 -0.00396006,-0.0188103 -0.00247504,-0.00346506 -0.00841514,-0.00495008 -0.0168303,-0.00495008l-0.127774 0c-0.00742512,0 -0.0133652,0.00198003 -0.0173253,0.0064351 -0.00445507,0.00445507 -0.0064351,0.0113852 -0.0064351,0.0202953l0 1.24798c0,0.00742512 0.00297005,0.0133652 0.00792013,0.0173253 0.00495008,0.00445507 0.0113852,0.0064351 0.0188103,0.0064351l0.130744 0c0.0178203,0 0.0267304,-0.00891014 0.0267304,-0.0267304l0 -0.799314c0.000495008,-0.062866 0.0138602,-0.119297 0.0401575,-0.16886 0.0267304,-0.0495008 0.063856,-0.0886064 0.111872,-0.116822 0.0475826,-0.0287723 0.104014,-0.0436226 0.16886,-0.0441176 0.0743131,0.000495008 0.134704,0.0158403 0.182287,0.0456026 0.0475208,0.0292055 0.0821713,0.0693011 0.104942,0.119792 0.0228322,0.0505527 0.0337224,0.107479 0.0337224,0.170345l0 0.796344c0,0.00742512 0.00148502,0.0133652 0.00544509,0.0173253 0.00346506,0.00445507 0.00940515,0.0064351 0.0183153,0.0064351l0.136684 0c0.00742512,0 0.0128702,-0.00247504 0.0158403,-0.00693011 0.00346506,-0.00445507 0.00495008,-0.0108902 0.00495008,-0.0198003zm0.678408 0.0445507c0.0242554,0 0.0519758,-0.000990016 0.0821713,-0.00346506 0.0307524,-0.00198003 0.0604528,-0.0059401 0.0901533,-0.0108902 0.0292055,-0.00544509 0.0539559,-0.0123752 0.0743131,-0.0212853 0.0103952,-0.00396006 0.0173253,-0.00792013 0.0202953,-0.0128702 0.00346506,-0.00445507 0.00346506,-0.0128702 0.000495008,-0.0257404l-0.0178203 -0.0921334c-0.000990016,-0.00940515 -0.00445507,-0.0168303 -0.00996204,-0.0217804 -0.0059401,-0.00544509 -0.0173253,-0.0059401 -0.0346506,-0.00198003 -0.0143552,0.00297005 -0.0326705,0.0064351 -0.0549459,0.00990016 -0.0222754,0.00396006 -0.0445507,0.00693011 -0.067383,0.00990016 -0.0227704,0.00247504 -0.0425707,0.00396006 -0.0589059,0.00396006 -0.0430657,0 -0.0777163,-0.00891014 -0.103024,-0.0262354 -0.0252454,-0.0178203 -0.0430657,-0.0435607 -0.0534609,-0.0772831 -0.0108902,-0.0341555 -0.0163353,-0.0762312 -0.0158403,-0.125794l0 -0.739356c0,-0.0103952 0.00198003,-0.0173253 0.0064351,-0.0212853 0.00445507,-0.00396006 0.0113852,-0.0059401 0.0202953,-0.00544509l0.297129 0c0.0178203,0 0.0267304,-0.00891014 0.0267304,-0.0267304l0 -0.106984c0,-0.00742512 -0.00297005,-0.0133652 -0.00792013,-0.0173253 -0.00495008,-0.00445507 -0.0113852,-0.0064351 -0.0188103,-0.0064351l-0.300099 0c-0.00891014,0 -0.0148502,-0.00247504 -0.0188103,-0.00693011 -0.00346506,-0.00445507 -0.00495008,-0.0108902 -0.00495008,-0.0198003l0 -0.311979c0,-0.00792013 -0.00247504,-0.0143552 -0.00693011,-0.0198003 -0.00495008,-0.00495008 -0.0123752,-0.0064351 -0.0227704,-0.00396006l-0.127774 0.0297005c-0.00891014,0.00297005 -0.0148502,0.00742512 -0.0183153,0.0123752 -0.00396006,0.00544509 -0.00544509,0.0113852 -0.00544509,0.0173253l0 0.273368c0,0.00891014 -0.00247504,0.0163353 -0.00693011,0.0212853 -0.00495008,0.00544509 -0.0123752,0.00841514 -0.0228322,0.00841514l-0.142562 0c-0.007487,0 -0.0134271,0.00198003 -0.0173872,0.0064351 -0.00445507,0.00445507 -0.0064351,0.0113852 -0.0064351,0.0202953l0 0.106984c0,0.00742512 0.00247504,0.0133652 0.00693011,0.0173253 0.00445507,0.00396006 0.0108902,0.0064351 0.0198622,0.0064351l0.139592 0c0.010457,0 0.0178822,0.00198003 0.0228322,0.0064351 0.00445507,0.00445507 0.00693011,0.0113852 0.00693011,0.0202953l0 0.775059c-0.000495008,0.0697961 0.00891014,0.132229 0.0287105,0.186185 0.0198003,0.0534609 0.0539559,0.0960934 0.102034,0.126784 0.0480158,0.0306905 0.114347,0.0465307 0.199055,0.0470258z"/>
   <path id="_273936584" class="fil1" d="M7.53272 1.88103c0.171211,0 0.309937,0.138726 0.309937,0.309875 0,0.171211 -0.138726,0.309937 -0.309937,0.309937 -0.171149,0 -0.309875,-0.138726 -0.309875,-0.309937 0,-0.171149 0.138726,-0.309875 0.309875,-0.309875z"/>
  </g>
 </g>
</svg>
