<?xml version="1.0" encoding="UTF-8"?>
<!DOCTYPE svg PUBLIC "-//W3C//DTD SVG 1.1//EN" "http://www.w3.org/Graphics/SVG/1.1/DTD/svg11.dtd">
<!-- Creator: CorelDRAW X5 -->
<svg xmlns="http://www.w3.org/2000/svg" xml:space="preserve" width="25.5683mm" height="6.651mm" style="shape-rendering:geometricPrecision; text-rendering:geometricPrecision; image-rendering:optimizeQuality; fill-rule:evenodd; clip-rule:evenodd"
viewBox="0 0 2.19605 0.571252"
 xmlns:xlink="http://www.w3.org/1999/xlink">
 <defs>
  <style type="text/css">
   <![CDATA[
    .fil0 {fill:#FEFEFE;fill-rule:nonzero}
   ]]>
  </style>
 </defs>
 <g id="Layer_x0020_1">
  <metadata id="CorelCorpID_0Corel-Layer"/>
  <g id="_271445688">
   <path id="_272652544" class="fil0" d="M-0 0.362884c0.000206135,0.00179509 0.0016319,0.0032724 0.00445767,0.00450062 0.00262822,0.00121963 0.00566872,0.00179509 0.00889817,0.00188098l0.211022 0c0.00486994,0 0.00870921,-0.000575461 0.011535,-0.00180368 0.00283436,-0.00115092 0.00425154,-0.00286013 0.00425154,-0.00507608l0 -0.119318c0.000206135,-0.0015546 0.00140859,-0.00302332 0.00382209,-0.00432884 0.00244785,-0.0013227 0.0050589,-0.00196687 0.00828835,-0.00205276l0.0909915 0c0.00421718,-8.58896e-005 0.0078589,-0.000575461 0.0104871,-0.0016319 0.0026454,-0.000987731 0.00405399,-0.00229325 0.00405399,-0.00377056l0 -0.0888786c-0.000197546,-0.00131411 -0.00162331,-0.00237055 -0.00444049,-0.0033497 -0.00262822,-0.000987731 -0.00567731,-0.0014773 -0.00889817,-0.00156319l-0.0921939 0c-0.00424295,0 -0.00726626,-0.000489571 -0.00927608,-0.00130552 -0.00183804,-0.000815952 -0.00283436,-0.00188098 -0.00283436,-0.00310921l0 -0.0294601c0,-0.00171779 0.00140859,-0.00310921 0.00382209,-0.00401105 0.00265399,-0.000901841 0.00566872,-0.00139141 0.00951657,-0.00139141l0.196481 0c0.00445767,-8.58896e-005 0.00807363,-0.000738651 0.0111227,-0.00188957 0.0030319,-0.00121963 0.00444908,-0.00278282 0.00463804,-0.00450062l0 -0.0854344c0,-0.0015546 -0.00141718,-0.00278282 -0.00403681,-0.00384786 -0.00262822,-0.000979142 -0.00626994,-0.0015546 -0.0105215,-0.0015546l-0.436629 0c-0.00425154,8.58896e-005 -0.00786749,0.000815952 -0.0105129,0.00212147 -0.00261963,0.0014 -0.0040454,0.0029546 -0.0040454,0.00475829l0 0.355016z"/>
   <path id="_272652424" class="fil0" d="M0.525439 0.258287c0.000188957,0.0189902 0.00706013,0.0356098 0.0206135,0.0496872 0.0135276,0.0140687 0.0319338,0.0257755 0.0555878,0.0351031 0.0234393,0.00924173 0.0501338,0.0161988 0.0804528,0.0207853 0.0301215,0.00458651 0.0620553,0.00687976 0.0956124,0.00687976 0.0335657,0 0.065508,-0.00229325 0.0956124,-0.00696565 0.0303362,-0.00457792 0.057005,-0.0116123 0.0806504,-0.0209485 0.0234651,-0.00924173 0.041854,-0.0209485 0.0554074,-0.0351031 0.0135362,-0.0140773 0.0203988,-0.0305252 0.0206049,-0.0494381l0 -0.145342c-0.000206135,-0.0189816 -0.00706872,-0.0356013 -0.020416,-0.0497559 -0.0135362,-0.0141632 -0.0319424,-0.0259473 -0.0551755,-0.0352749 -0.0234393,-0.00932762 -0.0501338,-0.016362 -0.08047,-0.0209485 -0.0301043,-0.0046724 -0.0622442,-0.00696565 -0.0962136,-0.00696565 -0.0339522,0 -0.0658859,0.00229325 -0.0962222,0.00696565 -0.0301301,0.00458651 -0.057005,0.0116209 -0.0804442,0.0209485 -0.0232675,0.00932762 -0.0416393,0.0211117 -0.0551927,0.0352749 -0.0133473,0.0141546 -0.0202184,0.0307743 -0.0204074,0.0497559l0 0.145342zm0.217842 -0.143874c0,-0.00359878 0.00154601,-0.0066908 0.00464663,-0.00924173 0.00533375,-0.00438896 0.0487853,-0.00505031 0.0557166,-0.00196687 0.00280859,0.00126258 0.00509326,0.00292884 0.00648467,0.00491289 0.00142577,0.00200982 0.00201841,0.00410553 0.00201841,0.00629571l0 0.142405c0,0.00374479 -0.00156319,0.00687976 -0.00463804,0.00916443 -0.00613252,0.00456933 -0.0534405,0.00456074 -0.0595816,0 -0.00309203,-0.00230184 -0.00464663,-0.00540246 -0.00464663,-0.00916443l0 -0.142405z"/>
   <path id="_272652664" class="fil0" d="M1.89768 0.369265c0.0470847,-8.58896e-005 0.0891449,-0.00352148 0.12594,-0.0103926 0.0367865,-0.00679387 0.0681105,-0.0163706 0.0937915,-0.0288074 0.0256724,-0.0123595 0.0450749,-0.0269264 0.0584221,-0.0437092 0.0133473,-0.0166884 0.0202184,-0.0351031 0.0202184,-0.0550724l0 -0.0913351c-0.000214724,-0.0298638 -0.0125399,-0.0550724 -0.0367951,-0.0757804 -0.0240405,-0.0206221 -0.0590234,-0.0363313 -0.104699,-0.0470589 -0.0457019,-0.0106331 -0.100869,-0.0160356 -0.165372,-0.0161215l-0.21712 0c-0.00484418,8.58896e-005 -0.00867485,0.000815952 -0.0115092,0.00220736 -0.00282577,0.00139141 -0.00425154,0.00310921 -0.00425154,0.00516197l0 0.355016c0,0.00171779 0.00121104,0.00319509 0.00365031,0.00426013 0.0024135,0.00105644 0.00606381,0.0016319 0.010908,0.0016319l0.226817 0zm0.0545829 -0.114903c-0.000197546,0.0046724 -0.00243927,0.00802209 -0.00647608,0.00998897 -0.00424295,0.00203558 -0.00870921,0.00331534 -0.0137338,0.00376197 -0.00483559,0.000429448 -0.0387706,0.000523927 -0.0413902,0.00049816 -0.0024135,-2.57669e-005 -0.0042773,-0.00024908 -0.0054454,-0.00083313 -0.00121104,-0.000609816 -0.00183804,-0.0016319 -0.00183804,-0.00310921l0 -0.163019c0,-0.00294601 0.00243927,-0.00442332 0.00728344,-0.00442332 0.00322945,0 0.0369411,0.000360737 0.0407804,0.000901841 0.00401964,0.000575461 0.00727485,0.00123681 0.0098859,0.00205276 0.00365031,0.00121963 0.00648467,0.00278282 0.00828835,0.00474111 0.00182945,0.00188098 0.0026454,0.00408835 0.0026454,0.00655338l0 0.142886z"/>
   <path id="_272652592" class="fil0" d="M0.132468 0.530789l0 -0.0583706c-0.000128834,-0.009654 -0.00316074,-0.0173583 -0.00919019,-0.023173 -0.00600369,-0.00578037 -0.0144209,-0.00998038 -0.0251055,-0.0125571 -0.0106675,-0.00253374 -0.0230184,-0.00382209 -0.0371043,-0.00375338l-0.0601657 0 0 0.137149 0.0605436 0c0.0156577,-2.57669e-005 0.0287816,-0.0016319 0.0392602,-0.00478405 0.0105472,-0.00317792 0.0185006,-0.00766995 0.0238086,-0.0135448 0.00530798,-0.0058405 0.00795338,-0.0128405 0.00795338,-0.0209657zm-0.028335 -0.00173497c-6.87117e-005,0.00928467 -0.00394233,0.0163104 -0.0116982,0.0210945 -0.00776442,0.00478405 -0.0190847,0.00718896 -0.0341068,0.00722332l-0.0287129 0 0 -0.111717 0.028335 0c0.00679387,-4.29448e-005 0.0130724,0.000386503 0.0186982,0.00121963 0.00562577,0.000858896 0.0104785,0.0023362 0.014627,0.00442332 0.00406258,0.00212147 0.0072405,0.00500737 0.00949081,0.00873498 0.00219877,0.00372761 0.00336687,0.0084086 0.00336687,0.0141203l0 0.0549007zm0.236746 0.0410295l0 -0.137149 -0.0287129 0 0 0.137149 0.0287129 0zm0.30234 -0.0367865c6.01228e-005,-0.00697424 -0.00110798,-0.0128749 -0.00355583,-0.0176589 -0.00239632,-0.00478405 -0.00640737,-0.0087951 -0.011973,-0.0120074 -0.00277424,-0.00160614 -0.00588344,-0.00298896 -0.0092589,-0.0042 -0.0033497,-0.00121963 -0.00730062,-0.00235338 -0.0118957,-0.00340982 -0.00458651,-0.00105644 -0.0100834,-0.00212147 -0.0164994,-0.00317792l-0.0135877 -0.00231043c-0.00432884,-0.000773007 -0.00800492,-0.0014773 -0.0109853,-0.00214724 -0.00298037,-0.000678528 -0.00542823,-0.00144295 -0.00750676,-0.00225031 -0.00205276,-0.000798774 -0.00393375,-0.00180368 -0.00554847,-0.00292025 -0.0027227,-0.00173497 -0.00461227,-0.00401964 -0.0057632,-0.00681105 -0.00109939,-0.00282577 -0.00168344,-0.00619264 -0.00162331,-0.0101436 -6.01228e-005,-0.00766995 0.00265399,-0.0132614 0.00822823,-0.0167571 0.00548835,-0.00353006 0.0141632,-0.00526504 0.0259387,-0.00520491 0.00755829,-3.43559e-005 0.0137681,0.000609816 0.018492,0.00193252 0.00470675,0.00128834 0.00827976,0.00330675 0.0105988,0.00602945 0.00239632,0.00273129 0.00383068,0.006227 0.00426872,0.0105387l0.0279571 0c-0.00104785,-0.00767853 -0.00414847,-0.0137767 -0.0091816,-0.0183374 -0.00499019,-0.00452638 -0.0119129,-0.00779878 -0.0205792,-0.00979142 -0.00873498,-0.00195828 -0.0191448,-0.00292025 -0.0311779,-0.00288589 -0.0201154,-3.43559e-005 -0.0355154,0.00281718 -0.046243,0.00853743 -0.0107448,0.00572025 -0.0161129,0.0145154 -0.0162417,0.0263252 -6.01228e-005,0.00565154 0.000850308,0.0106589 0.00284295,0.014962 0.00194111,0.00432884 0.0053681,0.00805645 0.0103583,0.0112344 0.00291166,0.00182945 0.00600369,0.00340123 0.00924173,0.00472393 0.00330675,0.00131411 0.00718037,0.00249939 0.0117669,0.00359019 0.00453497,0.0010908 0.0102295,0.00225031 0.0170233,0.00343559l0.0143607 0.00250798c0.00419141,0.000764418 0.00776442,0.0014773 0.0105988,0.0021816 0.00285154,0.000704295 0.00524786,0.00144295 0.0072405,0.00225031 0.00201841,0.000764418 0.00383068,0.00165767 0.0054454,0.00268835 0.00231902,0.00152025 0.00413129,0.00317792 0.00542823,0.0049816 0.00129693,0.00179509 0.00219019,0.00385645 0.00271411,0.006227 0.000523927,0.00237914 0.000781596,0.00520491 0.000781596,0.00844295 6.01228e-005,0.00575461 -0.00130552,0.0104356 -0.00387362,0.014 -0.00266258,0.00355583 -0.00681105,0.00619264 -0.0123681,0.00783314 -0.00562577,0.0016319 -0.0128749,0.00246503 -0.0217902,0.00243927 -0.00738651,2.57669e-005 -0.0136479,-0.000549694 -0.0187583,-0.00173497 -0.00511043,-0.00121963 -0.00911289,-0.00323804 -0.0120331,-0.00609816 -0.00291166,-0.00282577 -0.00466381,-0.00671657 -0.00530798,-0.0116295l-0.0279313 0c0.000841719,0.0106331 0.00672516,0.0186896 0.0175816,0.0242123 0.0108135,0.0055227 0.0262049,0.00831412 0.0460454,0.00834847 0.0141718,3.43559e-005 0.0262049,-0.00118528 0.0360994,-0.0036589 0.00997179,-0.00250798 0.0175301,-0.00655338 0.0227865,-0.0121362 0.00523068,-0.00555706 0.00782455,-0.0129436 0.00788467,-0.0221509zm0.296886 -0.000961964l-0.0287129 0c-0.00024908,0.00639019 -0.00169203,0.011492 -0.00426872,0.0153141 -0.00258528,0.00382209 -0.00654479,0.00654479 -0.0117755,0.00821964 -0.00523927,0.00170062 -0.0119043,0.00249939 -0.0200466,0.00246503 -0.00511043,3.43559e-005 -0.00989449,-0.000292025 -0.0144295,-0.00099632 -0.00446626,-0.000704295 -0.00846872,-0.00201841 -0.011973,-0.00401105 -0.00347853,-0.00198405 -0.00620123,-0.00484418 -0.00821105,-0.00863191 -0.00200123,-0.00379632 -0.00298037,-0.00873498 -0.00304049,-0.0148675l0 -0.0568246c6.01228e-005,-0.00612393 0.00103926,-0.0110798 0.00304049,-0.0148331 0.00200982,-0.00375338 0.00473252,-0.0066135 0.00821105,-0.00857179 0.0035043,-0.00195828 0.00750676,-0.0032724 0.011973,-0.00394233 0.00453497,-0.000712884 0.00931903,-0.00103068 0.0144295,-0.000970553 0.00924173,0 0.0164221,0.000970553 0.0215325,0.00289448 0.00511043,0.00188957 0.00873498,0.00468099 0.010865,0.00834847 0.00219877,0.0036589 0.00344417,0.00815093 0.00369325,0.013416l0.0287129 0c-0.000317792,-0.0071632 -0.00219877,-0.0131325 -0.00556565,-0.0179767 -0.0033497,-0.00485277 -0.00788467,-0.00870062 -0.0136994,-0.0115607 -0.00583191,-0.00288589 -0.0126172,-0.00494724 -0.0203215,-0.00619264 -0.00775584,-0.00125399 -0.0161558,-0.00186381 -0.0252172,-0.00182945 -0.00841719,-3.43559e-005 -0.0165595,0.000541105 -0.0244528,0.00176074 -0.00788467,0.00118528 -0.0149534,0.0032724 -0.0212233,0.006227 -0.00633866,0.00296319 -0.0113117,0.00700001 -0.0149963,0.0121706 -0.00369325,0.0051362 -0.00563436,0.0116552 -0.00569448,0.0195227l0 0.060097c6.01228e-005,0.00786749 0.00194111,0.0143522 0.00563436,0.0195227 0.00366749,0.00516197 0.00859755,0.00920737 0.0148675,0.012162 0.00627853,0.0029546 0.0133816,0.00500737 0.0212233,0.006227 0.00788467,0.00122822 0.0160957,0.00180368 0.0246417,0.00176933 0.0209485,0 0.0368724,-0.00321227 0.0476688,-0.00963682 0.0108736,-0.00641596 0.0165595,-0.0161816 0.017135,-0.0292712zm0.299231 -0.000773007l0 -0.060097c-6.01228e-005,-0.00786749 -0.00193252,-0.0143865 -0.00563436,-0.0195227 -0.00368467,-0.00517056 -0.00859755,-0.00920737 -0.0148675,-0.0121706 -0.00627853,-0.0029546 -0.0133215,-0.00504172 -0.0212147,-0.006227 -0.00788467,-0.00121963 -0.0161129,-0.00179509 -0.0246503,-0.00176074 -0.00859755,-3.43559e-005 -0.0168773,0.000541105 -0.0248393,0.00176074 -0.00794479,0.00118528 -0.015065,0.0032724 -0.0213436,0.006227 -0.00626994,0.00296319 -0.0112515,0.00700001 -0.0149276,0.0121706 -0.00369325,0.0051362 -0.00557424,0.0116552 -0.00563436,0.0195227l0 0.060097c6.01228e-005,0.00786749 0.00194111,0.0143522 0.00563436,0.0195227 0.00367608,0.00516197 0.00865768,0.00920737 0.0149276,0.012162 0.00627853,0.0029546 0.0133988,0.00500737 0.0213436,0.006227 0.00796197,0.00122822 0.0162417,0.00180368 0.0248393,0.00176933 0.00853743,3.43559e-005 0.0167657,-0.000541105 0.0246503,-0.00176933 0.00789326,-0.00121963 0.0149362,-0.0032724 0.0212147,-0.006227 0.00626994,-0.0029546 0.0111828,-0.00700001 0.0148675,-0.012162 0.00370184,-0.00517056 0.00557424,-0.0116552 0.00563436,-0.0195227zm-0.028335 -0.00173497c0,0.00613252 -0.00103068,0.0110712 -0.0030319,0.0148675 -0.00201841,0.00378773 -0.00473252,0.00664786 -0.00827976,0.00863191 -0.00349571,0.00199264 -0.00750676,0.00330675 -0.0120933,0.00401105 -0.00458651,0.000704295 -0.00945645,0.00103068 -0.014627,0.00099632 -0.00517056,3.43559e-005 -0.0100147,-0.000292025 -0.014627,-0.00099632 -0.00458651,-0.000704295 -0.00859755,-0.00201841 -0.0120847,-0.00401105 -0.00349571,-0.00198405 -0.00626994,-0.00484418 -0.00827976,-0.00863191 -0.00199264,-0.00379632 -0.00298037,-0.00873498 -0.00304049,-0.0148675l0 -0.0568246c6.01228e-005,-0.00612393 0.00104785,-0.0110798 0.00304049,-0.0148331 0.00200982,-0.00375338 0.00478405,-0.0066135 0.00827976,-0.00857179 0.00348712,-0.00195828 0.00749817,-0.0032724 0.0120847,-0.00394233 0.00461227,-0.000712884 0.00945645,-0.00103068 0.014627,-0.000970553 0.00517056,-6.01228e-005 0.0100405,0.000257669 0.014627,0.000970553 0.00458651,0.000669939 0.00859755,0.00198405 0.0120933,0.00394233 0.00354724,0.00195828 0.00626136,0.00481841 0.00827976,0.00857179 0.00200123,0.00375338 0.0030319,0.00870921 0.0030319,0.0148331l0 0.0568246zm0.337658 0.00231043l0 -0.0992025 -0.028335 0 0 0.0982406c0,0.00670798 -0.00129693,0.0120417 -0.00394233,0.016027 -0.0027227,0.00397669 -0.00678528,0.00686258 -0.0123595,0.00859755 -0.00554847,0.00172638 -0.0126773,0.0025681 -0.0213264,0.00253374 -0.00880369,3.43559e-005 -0.0159841,-0.000807363 -0.0216184,-0.00253374 -0.00562577,-0.00173497 -0.00977424,-0.00462086 -0.0124196,-0.00859755 -0.00271411,-0.00398528 -0.00401964,-0.00931903 -0.00401964,-0.016027l0 -0.0982406 -0.028335 0 0 0.0992025c8.58896e-005,0.00927608 0.00260246,0.0167914 0.0077043,0.0225374 0.00511043,0.00578037 0.0126172,0.00998038 0.0225203,0.0126515 0.00982578,0.00262822 0.021919,0.00395092 0.0361681,0.00391657 0.014146,3.43559e-005 0.026119,-0.00128834 0.0358933,-0.00397669 0.00982578,-0.00267117 0.0172638,-0.00690553 0.0223657,-0.0126601 0.00512761,-0.00577178 0.0077043,-0.0132528 0.0077043,-0.0224687zm0.324062 0.037946l0 -0.137149 -0.0267804 0 0 0.0943927 0.000781596 0.0127117 -0.00776442 -0.0115607 -0.0799461 -0.0955436 -0.0263767 0 0 0.137149 0.0271583 0 0 -0.0945731 -0.00115951 -0.0123252 0.00776442 0.0109681 0.080324 0.0959301 0.0259988 0zm0.29613 -0.124428l0 -0.0127203 -0.130784 0 0 0.0127203 0.0512332 0 0 0.124428 0.028335 0 0 -0.124428 0.051216 0z"/>
   <path id="_271444512" class="fil0" d="M1.08724 0.258287c0.000188957,0.0189902 0.00706013,0.0356098 0.0206135,0.0496872 0.0135276,0.0140687 0.0319338,0.0257755 0.0555878,0.0351031 0.0234393,0.00924173 0.0501338,0.0161988 0.0804528,0.0207853 0.0301215,0.00458651 0.0620553,0.00687976 0.0956124,0.00687976 0.0335657,0 0.065508,-0.00229325 0.0956124,-0.00696565 0.0303362,-0.00457792 0.057005,-0.0116123 0.0806504,-0.0209485 0.0234651,-0.00924173 0.041854,-0.0209485 0.0554074,-0.0351031 0.0135362,-0.0140773 0.0203988,-0.0305252 0.0206049,-0.0494381l0 -0.145342c-0.000206135,-0.0189816 -0.00706872,-0.0356013 -0.020416,-0.0497559 -0.0135362,-0.0141632 -0.0319424,-0.0259473 -0.0551755,-0.0352749 -0.0234393,-0.00932762 -0.0501338,-0.016362 -0.08047,-0.0209485 -0.0301043,-0.0046724 -0.0622442,-0.00696565 -0.0962136,-0.00696565 -0.0339522,0 -0.0658859,0.00229325 -0.0962308,0.00696565 -0.0301215,0.00458651 -0.0569964,0.0116209 -0.0804357,0.0209485 -0.0232675,0.00932762 -0.0416393,0.0211117 -0.0551927,0.0352749 -0.0133473,0.0141546 -0.0202184,0.0307743 -0.0204074,0.0497559l0 0.145342zm0.217842 -0.143874c0,-0.00359878 0.00154601,-0.0066908 0.00464663,-0.00924173 0.00533375,-0.00438896 0.0487853,-0.00505031 0.0557166,-0.00196687 0.00280859,0.00126258 0.00509326,0.00292884 0.00648467,0.00491289 0.00142577,0.00200982 0.00201841,0.00410553 0.00201841,0.00629571l0 0.142405c0,0.00374479 -0.00156319,0.00687976 -0.00463804,0.00916443 -0.00613252,0.00456933 -0.0534405,0.00456074 -0.0595816,0 -0.00309203,-0.00230184 -0.00464663,-0.00540246 -0.00464663,-0.00916443l0 -0.142405z"/>
  </g>
 </g>
</svg>
