<?xml version="1.0" encoding="UTF-8"?>
<!DOCTYPE svg PUBLIC "-//W3C//DTD SVG 1.1//EN" "http://www.w3.org/Graphics/SVG/1.1/DTD/svg11.dtd">
<!-- Creator: CorelDRAW X5 -->
<svg xmlns="http://www.w3.org/2000/svg" xml:space="preserve" width="32.3463mm" height="32.4379mm" style="shape-rendering:geometricPrecision; text-rendering:geometricPrecision; image-rendering:optimizeQuality; fill-rule:evenodd; clip-rule:evenodd"
viewBox="0 0 14.306 14.3465"
 xmlns:xlink="http://www.w3.org/1999/xlink">
 <defs>
  <style type="text/css">
   <![CDATA[
    .fil0 {fill:white}
   ]]>
  </style>
 </defs>
 <g id="Layer_x0020_1">
  <metadata id="CorelCorpID_0Corel-Layer"/>
  <g id="_242208448">
   <path id="_242206192" class="fil0" d="M4.4787 0.982292c-1.61563,0.719006 -2.90579,2.0315 -3.59569,3.66283l-0.883002 -0.298668c0.752884,-1.94172 2.25397,-3.5083 4.14836,-4.34646l0.330335 0.982292z"/>
   <path id="_242207416" class="fil0" d="M11.4989 1.76423l-0.633293 0.849477c-0.991182,-0.739395 -2.21589,-1.17318 -3.54417,-1.17318 -0.316801,0 -0.62688,0.0248558 -0.930325,0.0718254l-0.166207 -1.0493c0.357314,-0.0561689 0.723385,-0.0854475 1.09653,-0.0854475 1.56632,0 3.01366,0.516842 4.17746,1.38662z"/>
   <path id="_242207584" class="fil0" d="M14.2767 6.72842l-1.04266 0.096637c-0.139184,-1.55743 -0.883267,-2.93945 -1.99793,-3.9125l0.696716 -0.793176c1.3056,1.14593 2.17962,2.77505 2.34388,4.60903z"/>
   <path id="_242206384" class="fil0" d="M14.306 7.36215c0,1.78188 -0.665226,3.40211 -1.7618,4.63592l-0.786542 -0.698927c0.934925,-1.04487 1.50312,-2.42464 1.50312,-3.937 4.42275e-005,-0.0605917 -0.00203446,-0.123572 -0.00203446,-0.184473l1.04505 -0.0311804c0,0.0718254 0.00221137,0.143651 0.00221137,0.215653z"/>
   <path id="_242206792" class="fil0" d="M12.1553 12.4024c-1.25619,1.20467 -2.95966,1.94406 -4.83384,1.94406l4.42275e-005 -1.06053c1.59113,0 3.0383,-0.624669 4.10343,-1.64509l0.730373 0.761553z"/>
   <path id="_242207488" class="fil0" d="M6.935 13.2724l-0.0674027 1.05828c-1.86751,-0.116584 -3.53488,-0.970661 -4.71487,-2.27183l0.779775 -0.710116c1.00233,1.10118 2.41831,1.82239 4.0025,1.92367z"/>
   <path id="_242205904" class="fil0" d="M2.62464 10.9869l-0.833511 0.644925c-0.912501,-1.17981 -1.45623,-2.66068 -1.45623,-4.26968 4.42275e-005,-0.325912 0.0223349,-0.645146 0.0651913,-0.959471l1.03824 0.143651c-0.0360454,0.2651 -0.0561689,0.539266 -0.0561689,0.81582 4.42275e-005,1.36411 0.462885,2.62238 1.24248,3.62475z"/>
   <path id="_242207152" class="fil0" d="M4.4787 5.55997c-0.301056,0 -0.54391,-0.242676 -0.54391,-0.543998 4.42275e-005,-0.301056 0.242853,-0.54391 0.54391,-0.54391 0.301189,0 0.543998,0.242853 0.543998,0.54391 0,0.301322 -0.242809,0.543998 -0.543998,0.543998zm-1.14815 -2.40695c0,-0.388715 0.316625,-0.705738 0.705473,-0.705738 0.390927,0 0.705738,0.317067 0.705738,0.705738 0,0.388848 -0.314855,0.705561 -0.705738,0.705561 -0.388804,0 -0.705517,-0.316713 -0.705473,-0.705561zm1.79771 -0.236042l0 -0.00238828 -0.310079 -0.923337 -0.206896 -0.615735c-1.49436,0.674115 -2.69005,1.89236 -3.33497,3.40233l0.60689 0.204596 0.912457 0.307779 3.53267 1.19091 -1.20007 -3.56416z"/>
   <path id="_242207200" class="fil0" d="M3.33055 9.01847c-0.389025,0 -0.705915,-0.317023 -0.705915,-0.708126 0,-0.388627 0.316801,-0.705517 0.705871,-0.705517 0.388715,0 0.705517,0.31689 0.705517,0.705517 0,0.391104 -0.316846,0.708126 -0.705473,0.708126zm-0.943991 -2.33941l0 -0.00221137 -0.62918 -0.0879685c-0.0380356,0.254087 -0.0561247,0.510164 -0.0561247,0.773273 4.42275e-005,1.29432 0.440417,2.48302 1.1776,3.43126l4.44261 -3.43126 -4.9349 -0.683093z"/>
   <path id="_242207536" class="fil0" d="M10.5642 8.99344c-0.298978,0 -0.543954,-0.244711 -0.543954,-0.543733 4.42275e-005,-0.301056 0.244932,-0.546032 0.54391,-0.546032 0.301455,-4.42275e-005 0.546254,0.245064 0.546254,0.546032 4.42275e-005,0.299022 -0.244843,0.543733 -0.546209,0.543733zm2.37528 -1.80417l-5.618 0.172885 4.19568 3.72356c0.887646,-0.988661 1.42452,-2.29222 1.42452,-3.72356 4.42275e-005,-0.058513 0,-0.116761 -0.00221137,-0.172885z"/>
   <path id="_242206216" class="fil0" d="M7.85193 3.69693c-0.298845,0 -0.54391,-0.24272 -0.54391,-0.54391 0,-0.301189 0.245064,-0.543688 0.543865,-0.543688 0.301056,0 0.545944,0.242499 0.545944,0.543688 0,0.301189 -0.244888,0.54391 -0.5459,0.54391zm-0.530464 -1.93491c-0.298801,0 -0.593267,0.0222907 -0.878667,0.0673585l0.101104 0.640591 0.777563 4.89218 3.3528 -4.49227c-0.934748,-0.696583 -2.0966,-1.10785 -3.3528,-1.10785z"/>
   <path id="_242207512" class="fil0" d="M11.2001 5.96434c-0.388715,0 -0.705605,-0.31689 -0.705605,-0.707949 4.42275e-005,-0.388671 0.31689,-0.705561 0.705605,-0.705561 0.389025,0 0.705649,0.31689 0.705649,0.705561 8.8455e-005,0.391059 -0.316669,0.707949 -0.705649,0.707949zm-1.46287 0.860711c-0.386416,0 -0.70335,-0.316713 -0.70335,-0.707905 4.42275e-005,-0.388538 0.31689,-0.705738 0.70335,-0.705738 0.391104,0 0.707905,0.3172 0.707905,0.705738 0,0.391192 -0.316801,0.707905 -0.707905,0.707905zm1.28773 -3.67203l-3.70352 4.20913 5.59332 -0.50782c-0.12795,-1.47423 -0.833865,-2.78439 -1.8898,-3.70131z"/>
   <path id="_242206840" class="fil0" d="M8.55744 12.0542c-0.388671,0 -0.705561,-0.316846 -0.705561,-0.705517 4.42275e-005,-0.388848 0.316846,-0.705738 0.705561,-0.705738 0.391059,0 0.707905,0.31689 0.707905,0.705738 4.42275e-005,0.388671 -0.31689,0.705517 -0.707905,0.705517zm-0.240598 -3.02693c0.301322,0 0.546254,0.245064 0.546254,0.545944 0,0.299022 -0.244932,0.544086 -0.546298,0.544086 -0.298801,0 -0.543733,-0.245064 -0.543733,-0.544086 0,-0.30088 0.244932,-0.545944 0.543777,-0.545944zm-0.995384 -1.66512l0 5.59995c1.50568,0 2.87204,-0.5888 3.87866,-1.55283l-3.87866 -4.04712z"/>
   <path id="_242206888" class="fil0" d="M6.32833 9.78002c-0.301056,0 -0.544086,-0.244755 -0.544086,-0.54391 0,-0.301056 0.24303,-0.545767 0.544042,-0.545767 0.301056,0 0.543733,0.244711 0.543733,0.545767 0,0.299155 -0.242676,0.54391 -0.543688,0.54391zm-0.49893 2.65639c-0.299022,0 -0.543954,-0.242632 -0.543954,-0.544042 0,-0.30088 0.244932,-0.543688 0.54391,-0.543688 0.301233,0 0.546077,0.242809 0.546077,0.543688 4.42275e-005,0.30141 -0.244888,0.544042 -0.546032,0.544042zm-1.08764 -2.11253c0,-0.301056 0.244888,-0.543865 0.543688,-0.543865 0.301056,0 0.54391,0.242809 0.54391,0.543865 4.42275e-005,0.301012 -0.242853,0.543865 -0.54391,0.543865 -0.298757,0 -0.543688,-0.242853 -0.543688,-0.543865zm-1.57083 0.811397c0.950537,1.04023 2.28983,1.71925 3.78636,1.81337l0.364169 -5.58651 -4.15053 3.77313z"/>
  </g>
 </g>
</svg>
