<?xml version="1.0" encoding="UTF-8"?>
<!DOCTYPE svg PUBLIC "-//W3C//DTD SVG 1.1//EN" "http://www.w3.org/Graphics/SVG/1.1/DTD/svg11.dtd">
<!-- Creator: CorelDRAW X5 -->
<svg xmlns="http://www.w3.org/2000/svg" xml:space="preserve" width="14.3851mm" height="14.3851mm" style="shape-rendering:geometricPrecision; text-rendering:geometricPrecision; image-rendering:optimizeQuality; fill-rule:evenodd; clip-rule:evenodd"
viewBox="0 0 3.42667 3.42667"
 xmlns:xlink="http://www.w3.org/1999/xlink">
 <defs>
  <style type="text/css">
   <![CDATA[
    .str0 {stroke:#B2B3B3;stroke-width:0.119105}
    .fil0 {fill:#FEFEFE}
   ]]>
  </style>
 </defs>
 <g id="Layer_x0020_1">
  <metadata id="CorelCorpID_0Corel-Layer"/>
  <path class="fil0 str0" d="M1.34341 0.0595524l0.739879 0c0.0832066,0 0.151263,0.0680565 0.151263,0.151263l0 0.981305 0.981305 0c0.0832066,0 0.151263,0.0680565 0.151263,0.151263l0 0.739879c0,0.0832066 -0.0680565,0.151263 -0.151263,0.151263l-0.981305 0 0 0.981328c0,0.0832066 -0.0680565,0.151263 -0.151263,0.151263l-0.739879 0c-0.0832066,0 -0.151263,-0.0680565 -0.151263,-0.151263l0 -0.981328 -0.981328 0c-0.0832066,0 -0.151263,-0.0680565 -0.151263,-0.151263l0 -0.739879c0,-0.0832066 0.0680565,-0.151263 0.151263,-0.151263l0.981328 0 0 -0.981305c0,-0.0832066 0.0680565,-0.151263 0.151263,-0.151263z"/>
 </g>
</svg>
