<?xml version="1.0" encoding="UTF-8"?>
<!DOCTYPE svg PUBLIC "-//W3C//DTD SVG 1.1//EN" "http://www.w3.org/Graphics/SVG/1.1/DTD/svg11.dtd">
<!-- Creator: CorelDRAW X5 -->
<svg xmlns="http://www.w3.org/2000/svg" xml:space="preserve" width="38.5711mm" height="28.9317mm" style="shape-rendering:geometricPrecision; text-rendering:geometricPrecision; image-rendering:optimizeQuality; fill-rule:evenodd; clip-rule:evenodd"
viewBox="0 0 21.1943 15.8976"
 xmlns:xlink="http://www.w3.org/1999/xlink">
 <defs>
  <style type="text/css">
   <![CDATA[
    .fil0 {fill:#FEFEFE}
   ]]>
  </style>
 </defs>
 <g id="Layer_x0020_1">
  <metadata id="CorelCorpID_0Corel-Layer"/>
  <path class="fil0" d="M0.0781919 10.9608l0 0.322823c0.0512671,0.235235 0.214355,0.414038 0.44926,0.480471 0.391784,0.110776 0.809339,0.0182979 1.23475,-0.0976987l0 1.7244 -0.124733 0.0598391c-0.270292,0.129734 -0.544376,0.227432 -0.821263,0.338813 -0.17122,0.0689056 -0.371068,0.154241 -0.504374,0.285403 -0.666033,0.655208 -0.240895,1.52603 1.04468,1.22354 0.281172,-0.0661582 0.556685,-0.156329 0.82912,-0.251885 0.121601,-0.0426402 0.414093,-0.161384 0.53564,-0.161384l0.043849 0 1.28975 0.535804c1.94123,0.806481 5.38519,0.636525 6.95771,-0.87231 0.243807,-0.233971 0.479647,-0.493714 0.604325,-0.812855 0.196991,-0.504209 0.146768,-1.3746 0.146768,-1.91474l0 -0.202266 0.200343 -0.0166494c0.0781919,-0.0102754 0.202046,-0.0538497 0.278809,-0.0775875 0.198859,-0.0615425 0.396784,-0.127481 0.594105,-0.193804 0.55685,-0.18732 1.11167,-0.381728 1.66588,-0.576631 0.829615,-0.291832 1.66137,-0.600314 2.49511,-0.878025 0.838242,-0.279249 1.66725,-0.584983 2.50599,-0.862584 0.323867,-0.107205 0.878519,-0.2787 1.15804,-0.45503 0.29425,-0.185617 0.532343,-0.492944 0.532343,-0.853682l0 -0.331231c0,-0.521408 -0.41173,-1.05842 -0.959019,-1.05842l-0.492944 0c-0.102314,0.0188474 -0.269633,0.0855551 -0.366672,0.120118 -0.268754,0.0956656 -0.536024,0.196771 -0.80258,0.298371 -0.758676,0.289195 -1.51444,0.587236 -2.26927,0.886267 -1.46174,0.579104 -2.98228,1.26228 -4.45287,1.78457 0,-0.661197 0.10715,-2.33131 -0.0844561,-2.73062l-0.049179 -0.253588 0.184298 -0.0521463c0.127481,-0.047091 0.21919,-0.110667 0.34211,-0.170506 0.307328,-0.149625 0.613447,-0.301778 0.919401,-0.454206 0.886322,-0.441567 1.77056,-0.887586 2.65402,-1.33492 0.88253,-0.446842 1.7644,-0.895169 2.64429,-1.34723 0.304141,-0.156274 0.608227,-0.312823 0.911159,-0.471459 0.12836,-0.0672572 0.284689,-0.141328 0.406126,-0.218421 1.0471,-0.664604 0.60515,-2.37136 -0.7223,-2.37136 -0.521573,0 -1.78198,0.858243 -2.28218,1.12496 -0.938908,0.500747 -1.87111,1.01869 -2.79952,1.53856 -0.971437,0.543882 -1.95123,1.09166 -2.90415,1.6672 -0.198639,0.120008 -0.404917,0.223311 -0.606688,0.33733 -0.403653,0.228092 -0.33744,0.228971 -0.758841,0.036431 -1.06271,-0.485526 -2.51753,-0.589269 -3.66898,-0.495802 -1.39679,0.113359 -3.36352,0.612348 -4.07725,1.95919 -0.387883,0.731971 -0.254742,2.57061 -0.254742,3.46435 -0.444809,0.118854 -0.688507,0.334198 -1.06963,0.585533 -0.262764,0.173308 -0.49223,0.427171 -0.556245,0.743071zm7.18998 4.36391c-1.13095,0 -1.72231,0.153966 -2.81689,-0.319801l-1.08139 -0.468053 0.648724 -0.151219c0.59361,-0.138306 1.16046,-0.391344 1.7344,-0.593391l5.52404 -1.9448 0 0.310405c0,0.553113 -0.0135174,1.22118 -0.341561,1.69253 -0.220894,0.317438 -0.567675,0.538002 -0.893355,0.734828 -0.773897,0.467778 -1.87424,0.739499 -2.77397,0.739499zm-5.82857 -4.96098l0.308152 -0.193804 0.0131327 0.41195c0.00994571,0.312218 -0.0756643,0.368376 -0.333648,0.52454 -0.147043,0.0890168 -0.337165,0.170066 -0.508605,0.17089 -0.934017,0.00478053 0.2404,-0.737136 0.520968,-0.913576zm0.809284 2.46774c0,-0.960722 -0.0136273,-1.92243 -0.0178034,-2.88332 -0.00274743,-0.64191 -0.00456074,-1.28415 0.00109897,-1.92601 0.00208805,-0.233037 0.00483548,-0.466404 0.0119788,-0.699332 0.00390135,-0.126767 0.00522012,-0.27804 0.0255511,-0.402884 0.255731,-1.56823 2.73029,-2.22322 4.07224,-2.22322 1.65681,0 3.19081,0.115282 4.43051,1.34542 0.0787964,0.078137 0.148361,0.164626 0.2082,0.258094 0.255896,0.399806 0.313207,0.896652 0.324856,1.36097 0.0136273,0.542893 -0.0284634,1.08974 -0.0284634,1.63379 0,0.0783568 -0.0168692,0.154076 -0.0528057,0.223916 -0.156439,0.304196 -0.730872,0.423434 -1.03573,0.54542 -0.363815,0.145559 -0.732301,0.27837 -1.09732,0.420742 -1.0798,0.421291 -2.15399,0.873464 -3.23065,1.30509 -0.718124,0.287876 -1.43751,0.574763 -2.16047,0.850221 -0.255896,0.097424 -0.512836,0.194353 -0.771534,0.284085 -0.118689,0.0411565 -0.317933,0.115777 -0.441622,0.126052l-0.238038 0.0198365 0 -0.238862zm-0.398872 1.10617c2.82645,-1.07106 5.62152,-2.23207 8.42781,-3.35527 1.60725,-0.643284 3.21021,-1.29624 4.81949,-1.93518 1.07617,-0.427226 2.1541,-0.852968 3.23692,-1.26294 0.37486,-0.141932 0.751313,-0.283315 1.13007,-0.414478 0.137317,-0.0475855 0.460909,-0.168033 0.602567,-0.168033 0.362441,0 0.640811,0.385685 0.640811,0.724993 0,0.752852 -1.75957,1.11447 -2.32576,1.31272l-4.98923 1.74693c-3.31016,1.15903 -6.61071,2.34807 -9.93928,3.45336 -0.724883,0.240675 -1.50103,0.60515 -2.24965,0.763017 -0.365738,0.0771479 -0.603007,0.086709 -0.657845,-0.0106051 -0.222322,-0.394202 1.14953,-0.795876 1.3041,-0.854507zm9.64871 -8.02283l-0.83522 -0.773347 0.269523 -0.146163c0.987922,-0.535694 1.97277,-1.07754 2.95431,-1.62467 1.00485,-0.560147 2.01035,-1.1248 3.00053,-1.71044 0.430797,-0.254797 1.72879,-1.08941 2.16855,-1.08941 0.155505,0 0.329197,0.0569818 0.463437,0.13336 0.143141,0.0814889 0.270237,0.200343 0.331176,0.356342 0.21419,0.548717 -0.500308,0.968525 -0.893685,1.16244 -0.356177,0.175561 -0.710431,0.354913 -1.06562,0.532507 -1.02084,0.510363 -2.03425,1.04276 -3.05141,1.56131 -0.689661,0.351616 -1.38026,0.702628 -2.07459,1.0449 -0.245236,0.120887 -0.491296,0.241389 -0.739334,0.356397 -0.115062,0.0533002 -0.291887,0.141877 -0.414038,0.170341l-0.113634 0.0264303zm-7.75446 2.31323c0.217322,0.140229 0.451019,0.248313 0.631415,0.319856 0.898411,0.356342 1.99128,0.480031 2.95118,0.411346 0.852583,-0.061048 1.75704,-0.2837 2.47774,-0.765764 0.846264,-0.565312 0.822087,-1.40531 0.002143,-1.94985 -0.382498,-0.254083 -0.861485,-0.431512 -1.17909,-0.526078 -0.478493,-0.142537 -1.02738,-0.244467 -1.5279,-0.244467 -0.919401,0 -1.8954,0.0268699 -2.74232,0.426676 -0.190782,0.0900608 -0.482779,0.229466 -0.736257,0.407499 -0.78637,0.552124 -0.657076,1.41713 0.123085,1.92079zm0.80214 -1.85809c1.25728,-0.553608 3.2828,-0.536903 4.5065,0.0361562 0.576082,0.269743 0.821098,0.532452 0.815163,0.799668 -0.00538497,0.244906 -0.213585,0.492835 -0.742631,0.778238 -1.18447,0.638943 -3.06366,0.541684 -4.1589,0.226553 -0.148746,-0.042805 -0.307712,-0.100666 -0.462778,-0.17177 -1.19651,-0.548278 -1.23014,-1.10837 0.0426402,-1.66885zm1.96397 1.358c0.267655,0 1.41603,0.00423105 1.3341,-0.460964 -0.0585753,-0.332384 -0.833132,-0.422995 -1.08952,-0.425193 -0.284579,-0.00241774 -0.970173,0.0696749 -1.08568,0.39563 -0.012803,0.0362112 -0.0173638,0.0722575 -0.0062092,0.109403 0.0741807,0.248478 0.620151,0.381124 0.847308,0.381124z"/>
 </g>
</svg>
